<svg xmlns="http://www.w3.org/2000/svg" version="1.1" xmlns:xlink="http://www.w3.org/1999/xlink" xmlns:svgjs="http://svgjs.dev/svgjs" width="100%" height="100%" viewBox="0 0 1000 600"><rect width="1000" height="600" x="0" y="0" fill="#358597"/><g><rect width="333.3333333333333" height="333.3333333333333" rx="13.333333333333334" ry="13.333333333333334" y="265.56827321272345" fill="#f4a896" transform="matrix(0.5136717446931036,0,0,0.5136717446931036,0,77.97310984084497)" x="243.3460693359375"/><path d="M301.1203647681011 382.73171285087284L301.1203647681011 382.73171285087284Q295.60197073220667 382.73171285087284 291.9722249225007 379.01343665556425Q288.3719892413289 375.29516046025566 288.3719892413289 369.98333732410055L288.3719892413289 369.98333732410055Q288.3719892413289 364.46494328820603 291.9722249225007 360.8351974785001Q295.60197073220667 357.23496179732825 301.1203647681011 357.23496179732825L301.1203647681011 357.23496179732825Q306.63875880399564 357.23496179732825 310.2389944851674 360.8351974785001Q313.8687402948734 364.46494328820603 313.8687402948734 369.98333732410055L313.8687402948734 369.98333732410055Q313.8687402948734 375.29516046025566 310.2389944851674 379.01343665556425Q306.63875880399564 382.73171285087284 301.1203647681011 382.73171285087284ZM323.63659283969196 506.1725805094107L279.87307222348073 506.1725805094107L279.87307222348073 502.77891572797824L293.24116044947107 495.96207603657916L293.24116044947107 432.6628503307308L280.49278492269883 421.5965521304077L280.49278492269883 420.1210457036979L308.970058958197 408.4350348041567L310.2389944851674 408.4350348041567L310.2389944851674 495.96207603657916L323.63659283969196 502.77891572797824L323.63659283969196 506.1725805094107ZM400.5399877998043 507.23494513664167L393.1034354091871 507.23494513664167L354.03202522991285 376.97723778670473L338.0965558214475 369.33411449634826L338.0965558214475 365.9404497149158L392.0410707819561 365.9404497149158L392.0410707819561 369.33411449634826L373.98087211902873 377.2133188149783L400.5399877998043 469.1963894560643L401.60235242703527 469.1963894560643L438.3719725806423 364.8780850876848L446.2216667707382 364.8780850876848L483.8470806518369 469.1963894560643L485.1160161788073 469.1963894560643L511.26199006010404 377.41988971471767L493.20179139717675 369.33411449634826L493.20179139717675 365.9404497149158L540.1524058950811 365.9404497149158L540.1524058950811 369.33411449634826L525.8990138130648 377.2133188149783L486.38495170577767 507.23494513664167L478.9483993151605 507.23494513664167L440.29013093536497 403.12321166800155L439.22776630813394 403.12321166800155L400.5399877998043 507.23494513664167Z " fill="#358597" transform="matrix(0.5136717446931036,0,0,0.5136717446931036,0,77.97310984084497)"/><path d="M699.8086513320093 472.03085667779897L660.0127358906934 472.03085667779897L660.0127358906934 469.58612896639335L672.2576329495598 463.4636804369601L672.2576329495598 379.5776321829895L660.0127358906934 373.4551836535563L660.0127358906934 371.0104559421506L733.333308731024 371.0104559421506L733.333308731024 397.3284812179782L730.8885810196183 397.3284812179782L721.3860306978938 379.4288226701213L686.0331421407845 379.4288226701213L686.0331421407845 415.6958268062779L710.5229362585176 415.6958268062779L718.175996920309 403.0045012088069L720.6207246317147 403.0045012088069L720.6207246317147 436.52915860782156L718.175996920309 436.52915860782156L710.5229362585176 424.1141935342486L686.0331421407845 424.1141935342486L686.0331421407845 463.4636804369601L699.8086513320093 469.58612896639335L699.8086513320093 472.03085667779897ZM778.486366635594 473.56146881015724L778.486366635594 473.56146881015724Q769.6003128671805 473.56146881015724 763.7967418653219 469.0546664204356Q757.9719123616251 464.52660552887556 757.9719123616251 455.6618102623004L757.9719123616251 455.6618102623004L757.9719123616251 410.33868434302383L748.3205525270323 405.5980384330807L748.3205525270323 403.1533107216751L770.2168094204915 403.1533107216751L770.2168094204915 448.45517813911334Q770.2168094204915 455.1941232218576 774.5110267918301 458.723034527017Q778.7839856613303 462.2306873303381 785.3741212312063 462.2306873303381L785.3741212312063 462.2306873303381Q789.4982705878385 462.2306873303381 794.4727600180031 460.848884710848Q799.4472494481676 459.48834059319614 802.3596642000159 456.87354486708404L802.3596642000159 456.87354486708404L802.3596642000159 410.33868434302383L791.4965697606397 405.5980384330807L791.4965697606397 403.1533107216751L814.6045612588824 403.1533107216751L814.6045612588824 465.14310208218654L825.4676556982588 469.58612896639335L825.4676556982588 472.03085667779897L802.3596642000159 472.03085667779897L802.3596642000159 462.37949684320625L801.5943581338367 462.37949684320625Q795.7695286301399 468.2043263469032 790.3486106613709 470.8828975785302Q784.9064341907635 473.56146881015724 778.486366635594 473.56146881015724ZM868.1759858914231 472.03085667779897L836.6496276652097 472.03085667779897L836.6496276652097 469.58612896639335L846.2797289979641 464.67541504174375L846.2797289979641 374.68817676017824L837.0960562038142 366.7162385708121L837.0960562038142 365.65331347889656L857.6105104777832 357.2349467509259L858.5246260568306 357.2349467509259L858.5246260568306 464.67541504174375L868.1759858914231 469.58612896639335L868.1759858914231 472.03085667779897ZM913.1802342831252 472.03085667779897L881.6538760569117 472.03085667779897L881.6538760569117 469.58612896639335L891.283977389666 464.67541504174375L891.283977389666 374.68817676017824L882.1003045955161 366.7162385708121L882.1003045955161 365.65331347889656L902.6147588694852 357.2349467509259L903.5288744485324 357.2349467509259L903.5288744485324 464.67541504174375L913.1802342831252 469.58612896639335L913.1802342831252 472.03085667779897ZM1019.8553965077638 473.56146881015724L1019.8553965077638 473.56146881015724Q1008.8434925555193 473.56146881015724 999.5747857540163 469.64990447190826Q990.3273374543514 465.7595986354975 983.4395828587391 458.78681003253195Q976.5518282631267 451.8352799314046 972.725297932231 442.2689541041652Q968.8987676013352 432.70262827692574 968.8987676013352 421.5206563099748L968.8987676013352 421.5206563099748Q968.8987676013352 410.18987483015565 972.725297932231 400.7085830102695Q976.5518282631267 391.20603268854495 983.4395828587391 384.2545025874177Q990.3273374543514 377.28171398445204 999.5747857540163 373.39140814804136Q1008.8434925555193 369.4798438097923 1019.8553965077638 369.4798438097923L1019.8553965077638 369.4798438097923Q1030.8885589618467 369.4798438097923 1040.2210412688646 373.39140814804136Q1049.5535235758828 377.28171398445204 1056.441278171495 384.2545025874177Q1063.3290327671075 391.20603268854495 1067.1555630980033 400.7085830102695Q1070.9820934288991 410.18987483015565 1070.9820934288991 421.5206563099748L1070.9820934288991 421.5206563099748Q1070.9820934288991 432.70262827692574 1067.1555630980033 442.2689541041652Q1063.3290327671075 451.8352799314046 1056.441278171495 458.78681003253195Q1049.5535235758828 465.7595986354975 1040.2210412688646 469.64990447190826Q1030.8885589618467 473.56146881015724 1019.8553965077638 473.56146881015724ZM1023.0654302853486 465.9084081483657L1023.0654302853486 465.9084081483657Q1032.8655996328096 465.9084081483657 1040.2848167743796 461.01895272555447Q1047.725292417788 456.10823880090487 1051.9344757817735 447.2434435343297Q1056.1436591457586 438.35738976591614 1056.1436591457586 426.2613022199179L1056.1436591457586 426.2613022199179Q1056.1436591457586 411.2740584239095 1050.935326195373 400.2408959698267Q1045.726993244987 389.22899201758213 1036.9259734839266 383.10654348814893Q1028.1249537228664 376.98409495871573 1017.2618592834901 376.98409495871573L1017.2618592834901 376.98409495871573Q1007.4616899360292 376.98409495871573 999.893663281591 381.80977487601206Q992.3043781253143 386.61419629147 988.031419255814 395.50025005988357Q983.7372018844756 404.38630382829706 983.7372018844756 416.4611328724571L983.7372018844756 416.4611328724571Q983.7372018844756 431.32082565743565 989.0093103403763 442.48153912254827Q994.3026772981154 453.66351108949925 1003.2525065720438 459.7859596189325Q1012.2023358459724 465.9084081483657 1023.0654302853486 465.9084081483657ZM1115.6674642930263 472.03085667779897L1112.4574305154415 472.03085667779897L1088.4353234381515 410.33868434302383L1078.1674670502478 405.5980384330807L1078.1674670502478 403.1533107216751L1114.753348713979 403.1533107216751L1114.753348713979 405.5980384330807L1102.210832629376 410.18987483015565L1102.210832629376 411.103990409203L1118.1334505062703 453.5147015766311L1118.728688557743 453.5147015766311L1140.4761359383338 403.1533107216751L1143.6861697159186 403.1533107216751L1165.4123585946713 453.04701453618827L1166.0288551479823 453.04701453618827L1181.4837859844333 412.03936449008864L1181.4837859844333 411.103990409203L1170.4718820321891 405.5980384330807L1170.4718820321891 403.1533107216751L1200.4676281260442 403.1533107216751L1200.4676281260442 405.5980384330807L1189.136846646225 410.9551808963348L1163.5841274365766 472.03085667779897L1160.3740936589918 472.03085667779897L1138.3290272526647 422.1371528632858L1115.6674642930263 472.03085667779897ZM1237.0535097897755 472.03085667779897L1204.2941584569398 472.03085667779897L1204.2941584569398 469.58612896639335L1213.9455182915326 464.67541504174375L1213.9455182915326 419.0759285985692L1204.7618454973829 411.103990409203L1204.7618454973829 410.0410653172875L1223.7456876389933 401.6226985893168L1224.659803218041 401.6226985893168L1226.0416058375308 412.95348006913594L1226.80691190371 412.95348006913594Q1232.6104829055685 407.12865056543905 1238.052659376176 404.38630382829706Q1243.473577344945 401.6226985893168 1250.063712914821 401.6226985893168L1250.063712914821 401.6226985893168Q1259.0985761961028 401.6226985893168 1264.8383716924463 406.1295009790385Q1270.57816718879 410.6575618705985 1270.57816718879 419.5223571371737L1270.57816718879 419.5223571371737L1270.57816718879 464.67541504174375L1280.2082685215444 469.58612896639335L1280.2082685215444 472.03085667779897L1247.4701756905472 472.03085667779897L1247.4701756905472 469.58612896639335L1258.3332701299237 464.67541504174375L1258.3332701299237 426.7289892603607Q1258.3332701299237 419.9900441776165 1254.124086765938 416.4611328724571Q1249.9149034019529 412.95348006913594 1243.1759583192088 412.95348006913594L1243.1759583192088 412.95348006913594Q1239.0518089625766 412.95348006913594 1234.077319532412 414.3352826886261Q1229.1028301022475 415.6958268062779 1226.1904153503992 418.31062253239L1226.1904153503992 418.31062253239L1226.1904153503992 464.67541504174375L1237.0535097897755 469.58612896639335L1237.0535097897755 472.03085667779897ZM1325.6802039536892 473.56146881015724L1325.6802039536892 473.56146881015724Q1310.8205111687107 473.56146881015724 1302.2533349278715 464.52660552887556Q1293.6861586870327 455.4917422475939 1293.6861586870327 440.65330796445363L1293.6861586870327 440.65330796445363Q1293.6861586870327 429.17371697176634 1298.1929610767545 420.37269721070606Q1302.7210219683143 411.5716774496458 1310.225273117238 406.5971880194813Q1317.7082657643227 401.6226985893168 1326.296700507 401.6226985893168L1326.296700507 401.6226985893168Q1338.37152955116 401.6226985893168 1345.3443181541256 410.0410653172875Q1352.317106757091 418.4594320452582 1352.317106757091 434.23324040928406L1352.317106757091 434.23324040928406L1351.5518006909122 434.99854647546323L1305.782246233031 434.99854647546323Q1305.9310557458994 442.0351105839438 1308.5245929701732 448.22133461889194Q1311.139388696285 454.4288171556784 1316.8791841926288 458.2553474865742Q1322.6189796889726 462.08187781746994 1332.2490810217269 462.08187781746994L1332.2490810217269 462.08187781746994Q1340.6674477496977 462.08187781746994 1351.9982292295167 455.9594292880367L1351.9982292295167 455.9594292880367L1352.4659162699595 455.9594292880367L1352.4659162699595 457.490041420395Q1348.9370049648 464.08017699027107 1341.9854748636726 468.8208229002142Q1335.0126862607071 473.56146881015724 1325.6802039536892 473.56146881015724ZM1323.830714293756 408.361643672061L1323.830714293756 408.361643672061Q1316.4965311595392 408.361643672061 1311.819660755111 413.4849426150937Q1307.1640488525213 418.60824155812634 1306.0798652587673 427.9407238651444L1306.0798652587673 427.9407238651444L1340.6674477496977 427.9407238651444Q1338.988026104471 417.54531646621086 1334.7788427404857 412.95348006913594Q1330.5696593765003 408.361643672061 1323.830714293756 408.361643672061ZM1400.8290079521144 472.03085667779897L1368.069656619279 472.03085667779897L1368.069656619279 469.58612896639335L1377.7210164538715 464.67541504174375L1377.7210164538715 419.0759285985692L1368.5373436597217 411.103990409203L1368.5373436597217 410.0410653172875L1387.5211858013322 401.6226985893168L1388.4353013803798 401.6226985893168L1389.965913512738 415.6958268062779L1390.4123420513424 415.6958268062779Q1395.939552529303 408.361643672061 1400.7439739447611 405.21538539999113Q1405.5696538620573 402.0903856297596 1409.8638712333961 402.0903856297596L1409.8638712333961 402.0903856297596Q1413.0739050109808 402.0903856297596 1415.22101369665 403.68477326763286Q1417.3681223823194 405.3004194073444 1417.3681223823194 408.5104531849292L1417.3681223823194 408.5104531849292Q1417.3681223823194 409.4245687639765 1416.9004353418766 412.03936449008864L1416.9004353418766 412.03936449008864L1415.9863197628292 417.69412597907905L1399.5960148454924 414.6329017143624Q1394.0900628693703 416.9288199128999 1389.965913512738 422.90245892946496L1389.965913512738 422.90245892946496L1389.965913512738 464.67541504174375L1400.8290079521144 469.58612896639335L1400.8290079521144 472.03085667779897ZM1453.4863170056078 473.56146881015724L1453.4863170056078 473.56146881015724Q1446.279684882421 473.56146881015724 1441.0926104338732 472.3284757035353Q1435.8842774834873 471.1167410987516 1430.5271350202333 468.3531358597714L1430.5271350202333 468.3531358597714L1430.5271350202333 451.21878337809363L1432.6742437059024 451.21878337809363L1437.5636991287138 459.6371501060643Q1442.304345038657 468.055516834035 1453.018629965165 468.055516834035L1453.018629965165 468.055516834035Q1459.2898880074663 468.055516834035 1462.6699897997576 465.14310208218654Q1466.0288330902104 462.2306873303381 1466.0288330902104 457.19242239465865L1466.0288330902104 457.19242239465865Q1466.0288330902104 452.8982050233201 1463.8817244045413 450.36844330456125Q1461.7558742207102 447.83868158580236 1457.8443098824614 445.92541642035445Q1453.9327455442124 444.0121512549066 1448.5756030809582 441.567423543501L1448.5756030809582 441.567423543501Q1440.7737329062984 438.05977074017983 1436.5645495423132 433.8505873761945Q1432.3553661783278 429.64140401220914 1432.3553661783278 421.9883433504176L1432.3553661783278 421.9883433504176Q1432.3553661783278 416.3123233595889 1435.5653999559127 411.720486962514Q1438.7966922353357 407.12865056543905 1443.7711816655 404.38630382829706Q1448.7456710956646 401.6226985893168 1454.1028135589188 401.6226985893168L1454.1028135589188 401.6226985893168Q1459.757575047909 401.6226985893168 1464.5832549652055 403.0045012088069Q1469.4089348825019 404.38630382829706 1474.1495807924448 406.8310315397027L1474.1495807924448 406.8310315397027L1474.1495807924448 423.51895548277594L1472.0024721067757 423.51895548277594L1466.942948669258 415.39820778054155Q1462.0534932464466 407.59633760588184 1454.6980516103915 407.59633760588184L1454.6980516103915 407.59633760588184Q1449.5109771618438 407.59633760588184 1446.364718889774 410.18987483015565Q1443.2184606177043 412.80467055626775 1443.2184606177043 417.3965069533427L1443.2184606177043 417.3965069533427Q1443.2184606177043 422.5835814018903 1446.9812154430851 425.26215263351736Q1450.7227117666275 427.9407238651444 1457.9293438898144 431.32082565743565L1457.9293438898144 431.32082565743565Q1462.351112272183 433.4679343431049 1466.6453296435216 435.5937845269359Q1470.9395470148602 437.7408932126052 1473.7669277593554 441.6524575508542Q1476.5943085038507 445.54276338726487 1476.5943085038507 452.74939551045196L1476.5943085038507 452.74939551045196Q1476.5943085038507 459.48834059319614 1472.9165876858228 464.143952495786Q1469.2388668677954 468.8208229002142 1463.8817244045413 471.18051660426653Q1458.5245819412871 473.56146881015724 1453.4863170056078 473.56146881015724ZM1527.1045088716746 472.03085667779897L1494.3451575388392 472.03085667779897L1494.3451575388392 469.58612896639335L1503.9965173734317 464.67541504174375L1503.9965173734317 374.68817676017824L1494.8128445792822 366.7162385708121L1494.8128445792822 365.65331347889656L1515.327298853251 357.2349467509259L1516.2414144322984 357.2349467509259L1516.2414144322984 412.95348006913594L1516.8579109856096 412.95348006913594Q1522.661481987468 407.12865056543905 1528.1036584580752 404.38630382829706Q1533.5245764268443 401.6226985893168 1540.1147119967204 401.6226985893168L1540.1147119967204 401.6226985893168Q1549.149575278002 401.6226985893168 1554.8893707743455 406.1295009790385Q1560.6291662706894 410.6575618705985 1560.6291662706894 419.5223571371737L1560.6291662706894 419.5223571371737L1560.6291662706894 464.67541504174375L1570.2592676034437 469.58612896639335L1570.2592676034437 472.03085667779897L1537.5211747724466 472.03085667779897L1537.5211747724466 469.58612896639335L1548.3842692118228 465.14310208218654L1548.3842692118228 426.7289892603607Q1548.3842692118228 419.9900441776165 1544.1750858478376 416.4611328724571Q1539.9659024838522 412.95348006913594 1533.226957401108 412.95348006913594L1533.226957401108 412.95348006913594Q1529.102808044476 412.95348006913594 1524.1283186143114 414.3352826886261Q1519.1538291841468 415.6958268062779 1516.2414144322984 418.31062253239L1516.2414144322984 418.31062253239L1516.2414144322984 465.14310208218654L1527.1045088716746 469.58612896639335L1527.1045088716746 472.03085667779897ZM1599.6597756458264 383.10654348814893L1599.6597756458264 383.10654348814893Q1595.6844358020621 383.10654348814893 1593.06964007595 380.42797225652185Q1590.4761028516764 377.74940102489484 1590.4761028516764 373.9228706939991L1590.4761028516764 373.9228706939991Q1590.4761028516764 369.9475308502351 1593.06964007595 367.3327351241231Q1595.6844358020621 364.7391978998492 1599.6597756458264 364.7391978998492L1599.6597756458264 364.7391978998492Q1603.6351154895901 364.7391978998492 1606.228652713864 367.3327351241231Q1608.8434484399759 369.9475308502351 1608.8434484399759 373.9228706939991L1608.8434484399759 373.9228706939991Q1608.8434484399759 377.74940102489484 1606.228652713864 380.42797225652185Q1603.6351154895901 383.10654348814893 1599.6597756458264 383.10654348814893ZM1615.8800125484568 472.03085667779897L1584.353654322243 472.03085667779897L1584.353654322243 469.58612896639335L1593.9837556549974 464.67541504174375L1593.9837556549974 419.0759285985692L1584.8000828608474 411.103990409203L1584.8000828608474 410.0410653172875L1605.3145371348166 401.6226985893168L1606.228652713864 401.6226985893168L1606.228652713864 464.67541504174375L1615.8800125484568 469.58612896639335L1615.8800125484568 472.03085667779897ZM1664.0942947177432 507.23493572204L1631.334943384908 507.23493572204L1631.334943384908 504.7902080106344L1640.9863032195005 499.87949408598485L1640.9863032195005 419.0759285985692L1631.8026304253508 411.103990409203L1631.8026304253508 410.0410653172875L1650.7864725669615 401.6226985893168L1651.7005881460086 401.6226985893168L1652.9123227507923 410.9551808963348L1653.996506344546 410.9551808963348Q1659.8000773464048 406.06572547352357 1665.2422538170122 403.83358278050105Q1670.6844302876193 401.6226985893168 1676.8068788170526 401.6226985893168L1676.8068788170526 401.6226985893168Q1684.6087489917122 401.6226985893168 1690.5823880082771 405.5980384330807Q1696.534768523004 409.57337827684466 1699.9786458208105 416.8437859055466Q1703.4225231186165 424.1141935342486 1703.4225231186165 434.23324040928406L1703.4225231186165 434.23324040928406Q1703.4225231186165 446.7757564938869 1698.7669112160265 455.57677625494716Q1694.0900408115986 464.3777960160074 1686.2031366295855 468.96963241308237Q1678.337490949411 473.56146881015724 1668.6861311148182 473.56146881015724L1668.6861311148182 473.56146881015724Q1660.1189548739794 473.56146881015724 1653.231200278367 472.03085667779897L1653.231200278367 472.03085667779897L1653.231200278367 499.87949408598485L1664.0942947177432 504.7902080106344L1664.0942947177432 507.23493572204ZM1668.3885120890818 412.18817400295677L1668.3885120890818 412.18817400295677Q1664.7107912710544 412.18817400295677 1660.7992269328051 413.3361331022255Q1656.9089210963946 414.48409220149426 1653.231200278367 416.7800104000317L1653.231200278367 416.7800104000317L1653.231200278367 459.7859596189325Q1657.823036675442 463.4636804369601 1662.5636825853849 464.84548305645023Q1667.304328495328 466.2060271741021 1673.129157999025 466.2060271741021L1673.129157999025 466.2060271741021Q1680.463341133242 466.2060271741021 1685.8204835964962 460.0198031391539Q1691.1776260597499 453.81232060236744 1691.1776260597499 439.2715053449635L1691.1776260597499 439.2715053449635Q1691.1776260597499 429.7902135250773 1688.1164017950337 423.81657450851225Q1685.055177530317 417.8429354919472 1679.8681030817693 415.015554747452Q1674.6597701313833 412.18817400295677 1668.3885120890818 412.18817400295677Z " fill="#f4a896" transform="matrix(0.5136717446931036,0,0,0.5136717446931036,0,77.97310984084497)"/></g></svg>