<svg xmlns="http://www.w3.org/2000/svg" version="1.1" xmlns:xlink="http://www.w3.org/1999/xlink" xmlns:svgjs="http://svgjs.dev/svgjs" width="100%" height="100%" viewBox="0 0 1000 600"><rect width="1000" height="600" x="0" y="0" fill="#cc313d"/><g><circle r="166.66666666666666" cx="459.7394816080729" cy="481.9617900670171" fill="#f7c5cc" transform="matrix(0.4265149576657525,0,0,0.4265149576657525,0,94.43606297954233)"/><path d="M336.277502514544 555.9037923398682L336.277502514544 555.9037923398682L337.1297751628308 547.2341222969507Q343.4777369569671 545.5589657123869 346.2108871738869 542.2674299672792Q348.9734261028165 538.9758942221715 348.9734261028165 533.4802050763221L348.9734261028165 533.4802050763221L348.9734261028165 479.72825081023313Q348.9734261028165 473.8211196962452 347.0631598221737 471.0585807673155Q345.15289354153083 468.32543055039577 341.12663999617587 468.32543055039577L341.12663999617587 468.32543055039577Q339.4514834116121 468.32543055039577 337.65877197900886 468.7368725185342Q335.83667183439564 469.1483144866727 335.83667183439564 469.1483144866727L335.83667183439564 469.1483144866727L336.6889444826825 461.3309170920419Q341.9789126444627 460.4786444437551 347.3864356542825 459.42065081139907Q352.76456995209236 458.362657179043 357.23165417759566 457.42221839472654Q361.66934969108905 456.45239089840015 364.40249990800885 455.83522794619245Q367.1650388369385 455.1886762819749 367.1650388369385 455.1886762819749L367.1650388369385 455.1886762819749L368.22303246929454 457.7454942268353Q367.3707598210077 459.8614814915474 366.4303210366912 467.14988207000016Q365.4604935403649 474.4382826484529 364.8433305881572 484.93005283598364Q364.19677892393963 495.39243431150453 363.78533695580114 507.7650820676683Q363.3445062756528 520.1671185358418 363.3445062756528 532.6279324280354L363.3445062756528 532.6279324280354Q363.3445062756528 538.7701732381023 365.0490515722264 541.6208783030617Q366.75359686880006 544.5009720800309 370.7504617021451 544.5009720800309L370.7504617021451 544.5009720800309Q372.660727982788 544.5009720800309 375.42326691171763 544.2658623839518Q378.15641712863743 544.0601413998826 378.15641712863743 544.0601413998826L378.15641712863743 544.0601413998826L378.59724780878577 544.9124140481694L376.89270251221217 554.0229147712353Q376.89270251221217 554.0229147712353 375.0999910796088 553.9053599231958Q373.30727964700554 553.7878050751563 370.4565745820462 553.6996389391265Q367.576480805077 553.5820840910869 364.31433377197914 553.4939179550573Q361.02279802687144 553.3763631070177 358.0545381138726 553.3763631070177L358.0545381138726 553.3763631070177Q353.6168426003792 553.3763631070177 348.5325954226682 554.0229147712353Q343.4777369569671 554.640077723443 339.8629253797506 555.2866293876606Q336.277502514544 555.9037923398682 336.277502514544 555.9037923398682ZM354.88055721680445 430.23765978557816L354.88055721680445 430.23765978557816Q349.5905890550242 430.23765978557816 347.0631598221737 426.8285691924309Q344.5357305893231 423.44886731129355 344.5357305893231 419.4226137659386L344.5357305893231 419.4226137659386Q344.5357305893231 414.3677553002375 348.1211534545297 410.66477758699136Q351.7065763197363 406.96179987374524 356.99654448151654 406.96179987374524L356.99654448151654 406.96179987374524Q362.08079165922754 406.96179987374524 364.7257757401176 410.223946906843Q367.3707598210077 413.5154826519507 367.3707598210077 417.7474571813749L367.3707598210077 417.7474571813749Q367.3707598210077 422.83170435908585 363.8735030918308 426.53468207233203Q360.4056350746638 430.23765978557816 354.88055721680445 430.23765978557816ZM453.27396502591654 552.3183694746617L439.7551575013671 556.9617859722243Q439.7551575013671 556.9617859722243 438.37388803690226 552.2008146266221Q436.99261857243744 547.4398432810199 434.5533554756165 538.8877280861419Q432.11409237879565 530.3062241792541 428.7343904976583 519.1091249034858Q425.3546886165209 507.88263691570785 421.44598991920554 494.7752713592969Q417.53729122189014 481.63851709087595 413.1877618444264 467.67887888617815Q408.83823246696267 453.71924068148036 404.40053695346927 439.9653234608518L404.40053695346927 439.9653234608518Q402.49027067282645 433.8230826507847 397.96440902330335 430.9723775858254Q393.4091586617704 428.1216725208661 385.3566515710605 427.88656282478695L385.3566515710605 427.88656282478695Q385.3566515710605 427.68084184071773 385.2684854350308 427.47512085664846Q385.15093058699125 427.26939987257924 385.15093058699125 427.06367888851L385.15093058699125 427.06367888851L386.4146452034165 417.9531781654441Q386.4146452034165 417.9531781654441 390.9698955649495 418.15889914951333Q395.5251459264824 418.36462013358255 401.22655605640114 418.48217498162217Q406.9573548983297 418.59972982966167 410.3370567794671 418.59972982966167L410.3370567794671 418.59972982966167Q417.94873319002863 418.59972982966167 424.94324664838246 417.9531781654441Q431.90837139472643 417.30662650122656 436.4636217562594 416.7776296850485Q441.01887211779234 416.24863286887046 441.01887211779234 416.24863286887046L441.01887211779234 416.24863286887046L441.63603507000005 417.7474571813749L440.8131511337231 426.005685256154Q433.61291669130003 426.41712722429247 429.7042179939847 427.35756600860896Q425.7661305846594 428.32739350493534 424.17914013612534 430.0025500894991Q422.59214968759125 431.70709538607264 422.59214968759125 434.6753552990716L422.59214968759125 434.6753552990716Q422.59214968759125 436.3505118836353 423.97341915205607 442.6103075417419Q425.3546886165209 448.8407144878386 427.67639686530225 457.7454942268353Q429.99810511408356 466.6208852538221 432.87819889105276 476.7893796092441Q435.7289039560121 486.9284852526562 438.4620541729319 496.89125862400897Q441.2245931018616 506.82464328335175 443.5463013506429 514.9653165100914Q445.8680095994242 523.1059897368309 447.24927906388905 527.9845159304726Q448.63054852835387 532.8630421241144 448.63054852835387 532.8630421241144L448.63054852835387 532.8630421241144L449.8942631447792 532.8630421241144Q452.8625230577781 524.8105350334046 455.83078297077697 516.669861806665Q458.7990428837759 508.5291885799254 461.85546893280446 500.359126641176Q464.91189498183303 492.2184534144364 467.88015489483195 484.0777801876969Q470.84841480783086 475.9371069609573 473.8166747208297 467.7964337342177Q476.7849346338286 459.6263717954683 479.72380583481765 451.60325341676827L479.72380583481765 451.60325341676827Q478.90092189854073 448.63499350376935 477.93109440221434 445.6667335907705Q476.99065561789786 442.6984736777716 475.9326619855418 439.9653234608518L475.9326619855418 439.9653234608518Q473.8166747208297 433.6173616667155 469.26142435929677 430.85482273778587Q464.7061739977638 428.1216725208661 456.888776603133 427.88656282478695L456.888776603133 427.88656282478695L456.4479459229847 427.06367888851L457.94677023548905 417.9531781654441Q457.94677023548905 417.9531781654441 460.59175431637914 418.0707330134837Q463.2367383972693 418.15889914951333 467.26299194262424 418.2764539975529Q471.2598567759693 418.36462013358255 475.28611032132426 418.48217498162217Q479.3123638666792 418.59972982966167 481.83979309952974 418.59972982966167L481.83979309952974 418.59972982966167Q488.187754893666 418.59972982966167 495.38798933608905 417.9531781654441Q502.58822377851214 417.30662650122656 507.5549161081836 416.7776296850485Q512.521608437855 416.24863286887046 512.521608437855 416.24863286887046L512.521608437855 416.24863286887046L513.1681601020725 417.7474571813749L512.3158874537858 426.005685256154Q505.11565301136267 426.41712722429247 501.1187881780176 427.35756600860896Q497.0925346326627 428.32739350493534 495.50554418412867 430.0025500894991Q493.91855373559457 431.70709538607264 493.91855373559457 434.8810762831408L493.91855373559457 434.8810762831408Q493.91855373559457 436.3505118836353 495.2998232000594 442.4045865576727Q496.65170395251437 448.42927251970013 499.09096704933523 457.304663546687Q501.5302301461561 466.2094432856837 504.29276907508574 476.3485489290957Q507.0259192920056 486.51704328451774 509.78845822093524 496.4504279438606Q512.521608437855 506.4132013152133 514.9608715346759 514.6420406779825Q517.4001346314967 522.9002687527617 518.7814040959615 527.8669610824331Q520.1626735604264 532.8630421241144 520.1626735604264 532.8630421241144L520.1626735604264 532.8630421241144L521.4263881768517 532.8630421241144Q524.1595383937715 525.6628076816913 527.6567951229484 516.140864990487Q531.1540518521253 506.6189222992826 534.9745844134111 496.1271521117518Q538.7657282626868 485.6647706362309 542.4687059759331 475.40811014477924Q546.1716836891792 465.15144965332763 549.139943602178 456.45239089840015Q552.1082035151769 447.7827208554826 553.9009149477802 441.87558974149465Q555.6936263803836 435.9390699154968 555.6936263803836 434.46963431500234L555.6936263803836 434.46963431500234Q555.6936263803836 430.44338076964743 552.3139244992462 428.7388354730738Q548.9342226181088 427.06367888851 541.3225462075474 427.06367888851L541.3225462075474 427.06367888851L530.7426098839869 427.06367888851L530.3017792038386 426.2114062402232L531.8006035163429 417.1009055171573Q531.8006035163429 417.1009055171573 536.326465165866 417.42418134926606Q540.881715527399 417.7474571813749 547.6705080016835 418.15889914951333Q554.4299117639582 418.59972982966167 561.189315526233 418.59972982966167L561.189315526233 418.59972982966167Q566.0678417198748 418.59972982966167 571.2402550336155 418.48217498162217Q576.442057059366 418.36462013358255 580.0274799245726 418.15889914951333Q583.642291501789 417.9531781654441 583.642291501789 417.9531781654441L583.642291501789 417.9531781654441L582.1434671892846 427.88656282478695Q576.0012263792175 428.1216725208661 573.4737971463671 430.0025500894991Q570.9463679135165 431.9128163701419 568.5952709527253 438.0550571802089L568.5952709527253 438.0550571802089L524.1595383937715 552.3183694746617L511.05217283736044 556.9617859722243Q511.05217283736044 556.9617859722243 508.9361855726484 549.5558305457321Q506.8201983079363 542.1498751192397 503.23477544272976 529.4539515309672Q499.6199638655132 516.7580279426946 494.85899251991106 500.68240247328475Q490.0980211743088 484.60677700387487 484.6023320284594 467.2674369180397L484.6023320284594 467.2674369180397L483.3386174120341 467.2674369180397L453.27396502591654 552.3183694746617Z " fill="#cc3130" transform="matrix(0.4265149576657525,0,0,0.4265149576657525,0,94.43606297954233)"/><path d="M710.1803116576104 555.9037923398682L710.1803116576104 555.9037923398682L711.0325843058972 547.2341222969507Q717.3805461000335 545.5589657123869 720.1136963169533 542.2674299672792Q722.876235245883 538.9758942221715 722.876235245883 533.4802050763221L722.876235245883 533.4802050763221L722.876235245883 479.72825081023313Q722.876235245883 473.8211196962452 720.9659689652401 471.0585807673155Q719.0557026845972 468.32543055039577 715.0294491392423 468.32543055039577L715.0294491392423 468.32543055039577Q713.3542925546785 468.32543055039577 711.5615811220753 468.7368725185342Q709.7394809774621 469.1483144866727 709.7394809774621 469.1483144866727L709.7394809774621 469.1483144866727L710.5917536257489 461.3309170920419Q715.8817217875292 460.4786444437551 721.2892447973488 459.42065081139907Q726.6673790951588 458.362657179043 731.134463320662 457.42221839472654Q735.5721588341555 456.45239089840015 738.3053090510753 455.83522794619245Q741.0678479800049 455.1886762819749 741.0678479800049 455.1886762819749L741.0678479800049 455.1886762819749L742.125841612361 457.7454942268353Q741.2735689640742 459.8614814915474 740.3331301797577 467.14988207000016Q739.3633026834314 474.4382826484529 738.7461397312236 484.93005283598364Q738.099588067006 495.39243431150453 737.6881460988676 507.7650820676683Q737.2473154187192 520.1671185358418 737.2473154187192 532.6279324280354L737.2473154187192 532.6279324280354Q737.2473154187192 538.7701732381023 738.9518607152929 541.6208783030617Q740.6564060118665 544.5009720800309 744.6532708452115 544.5009720800309L744.6532708452115 544.5009720800309Q746.5635371258544 544.5009720800309 749.326076054784 544.2658623839518Q752.0592262717039 544.0601413998826 752.0592262717039 544.0601413998826L752.0592262717039 544.0601413998826L752.5000569518522 544.9124140481694L750.7955116552786 554.0229147712353Q750.7955116552786 554.0229147712353 749.0028002226752 553.9053599231958Q747.210088790072 553.7878050751563 744.3593837251126 553.6996389391265Q741.4792899481433 553.5820840910869 738.2171429150455 553.4939179550573Q734.9256071699378 553.3763631070177 731.957347256939 553.3763631070177L731.957347256939 553.3763631070177Q727.5196517434456 553.3763631070177 722.4354045657346 554.0229147712353Q717.3805461000335 554.640077723443 713.765734522817 555.2866293876606Q710.1803116576104 555.9037923398682 710.1803116576104 555.9037923398682ZM728.7833663598708 430.23765978557816L728.7833663598708 430.23765978557816Q723.4933981980906 430.23765978557816 720.9659689652401 426.8285691924309Q718.4385397323895 423.44886731129355 718.4385397323895 419.4226137659386L718.4385397323895 419.4226137659386Q718.4385397323895 414.3677553002375 722.0239625975962 410.66477758699136Q725.6093854628027 406.96179987374524 730.899353624583 406.96179987374524L730.899353624583 406.96179987374524Q735.983600802294 406.96179987374524 738.6285848831841 410.223946906843Q741.2735689640742 413.5154826519507 741.2735689640742 417.7474571813749L741.2735689640742 417.7474571813749Q741.2735689640742 422.83170435908585 737.7763122348972 426.53468207233203Q734.3084442177302 430.23765978557816 728.7833663598708 430.23765978557816ZM828.8813194655565 555.9037923398682L829.7335921138434 547.2341222969507Q836.0815539079797 545.5589657123869 838.8147041248994 542.2674299672792Q841.5772430538291 538.9758942221715 841.5772430538291 533.4802050763221L841.5772430538291 533.4802050763221L842.429515702116 491.6012904622287Q842.429515702116 481.02135413866824 837.874265340583 475.29055529673974Q833.31901497905 469.589145166821 824.8550659202017 469.589145166821L824.8550659202017 469.589145166821Q819.7708187424906 469.589145166821 814.4808505807105 471.7051324315331Q809.1908824189302 473.8211196962452 805.0764627375456 476.3485489290957Q800.9620430561611 478.90536687395615 798.8460557914489 480.5805234585199L798.8460557914489 480.5805234585199Q798.6109460953697 486.0762126043694 798.3170589752708 493.5997228789013Q797.9937831431621 501.12323315343315 797.6705073110533 508.9406305480639Q797.3472314789445 516.7580279426946 797.1415104948753 523.1059897368309Q796.935789510806 529.4539515309672 796.935789510806 532.6279324280354L796.935789510806 532.6279324280354Q796.935789510806 539.2110039182508 798.7285009434094 541.8559879991408Q800.5212123760126 544.5009720800309 804.5474659213676 544.5009720800309L804.5474659213676 544.5009720800309Q806.4577322020104 544.5009720800309 809.1908824189302 544.2658623839518Q811.9534213478598 544.0601413998826 811.9534213478598 544.0601413998826L811.9534213478598 544.0601413998826L812.3648633159984 544.9124140481694L810.4839857473654 554.0229147712353Q810.4839857473654 554.0229147712353 807.3100048502972 553.7878050751563Q804.1360239532291 553.5820840910869 799.6689397277258 553.4939179550573Q795.2312442142324 553.3763631070177 791.2049906688775 553.3763631070177L791.2049906688775 553.3763631070177Q786.7672951553841 553.3763631070177 781.9181576737521 553.6996389391265Q777.0396314801104 554.0229147712353 773.6599295989731 554.3168018913342Q770.2802277178357 554.640077723443 770.2802277178357 554.640077723443L770.2802277178357 554.640077723443L771.3382213501918 545.9704076805253Q777.451073448249 544.9124140481694 780.0078913931093 542.1498751192397Q782.5353206259599 539.4167249023199 782.5353206259599 533.4802050763221L782.5353206259599 533.4802050763221L782.5353206259599 481.8442380749452Q782.5353206259599 474.67339234453203 780.2136123771786 471.7932985675628Q777.8919041283973 468.9425935026035 772.1611052864687 468.9425935026035L772.1611052864687 468.9425935026035L769.8393970376874 468.9425935026035L769.2222340854796 468.09032085431664L769.8393970376874 461.12519610797267Q777.2453524641796 459.8614814915474 784.0341449384644 458.4802120270826Q790.7935487007389 457.0989425626177 795.1430780782027 456.0409489302617Q799.4632187436566 454.9829552979056 799.4632187436566 454.9829552979056L799.4632187436566 454.9829552979056L800.7269333600818 456.6875005944793Q800.7269333600818 456.6875005944793 799.7864945757653 460.91947512390345Q798.8460557914489 465.15144965332763 798.4052251113005 470.64713879917707L798.4052251113005 470.64713879917707L798.8460557914489 471.2643017513848Q800.7269333600818 470.00058713495946 804.8707417534763 467.3556030540694Q808.985161434861 464.71061897317924 813.7461327804632 461.9774687562595Q818.5071041260654 459.2149298273298 822.9447996395588 457.21649741065727Q827.4118838650621 455.1886762819749 829.9393130979126 455.1886762819749L829.9393130979126 455.1886762819749Q843.2817883504027 455.1886762819749 851.0991857450335 462.5946317084672Q858.9165831396643 470.00058713495946 858.9165831396643 482.4907897391628L858.9165831396643 482.4907897391628Q858.9165831396643 485.2533286680924 858.5051411715258 491.6012904622287Q858.0936992033874 497.94925225636496 857.4471475391698 505.76664965099576Q856.8005958749523 513.5840470456264 856.3891539068137 520.7842814880496Q855.9777119386753 527.9845159304726 855.9777119386753 532.6279324280354L855.9777119386753 532.6279324280354Q855.9777119386753 538.7701732381023 857.652868523239 541.6208783030617Q859.3574138198127 544.5009720800309 863.3836673651676 544.5009720800309L863.3836673651676 544.5009720800309Q865.2645449338006 544.5009720800309 868.0270838627303 544.2658623839518Q870.7896227916599 544.0601413998826 870.7896227916599 544.0601413998826L870.7896227916599 544.0601413998826L871.2010647597983 544.9124140481694L869.4965194632248 554.0229147712353Q869.4965194632248 554.0229147712353 867.7038080306214 553.9053599231958Q865.911096598018 553.7878050751563 863.0603915330588 553.6996389391265Q860.2096864680994 553.5820840910869 856.9181507229918 553.4939179550573Q853.6266149778841 553.3763631070177 850.6877437768951 553.3763631070177L850.6877437768951 553.3763631070177Q847.2786531837478 553.3763631070177 843.5756754705017 553.7878050751563Q839.8726977572555 554.2286357553046 836.4929958761181 554.640077723443Q833.1132939949807 555.0809084035914 830.9973067302687 555.4923503717298Q828.8813194655565 555.9037923398682 828.8813194655565 555.9037923398682L828.8813194655565 555.9037923398682ZM922.8370317611752 553.3763631070177L910.9933808211896 556.9617859722243Q910.9933808211896 556.9617859722243 909.4945565086852 552.3183694746617Q908.0251209081906 547.6749529770991 905.7034126594093 540.0338878545276Q903.3523156986182 532.422211443966 900.4134444976291 523.34109943291Q897.4451845846302 514.2305987098441 894.5944795196709 505.0319318507485Q891.7143857427017 495.83326499165287 889.1869565098511 488.1040337330518Q886.6595272770005 480.3748024744507 885.1607029644962 475.9371069609573L885.1607029644962 475.9371069609573Q881.5752800992896 465.7686126055353 870.7896227916599 465.35717063739685L870.7896227916599 465.35717063739685L870.3487921115116 464.50489798911L871.6125067279369 457.5103845307562Q871.6125067279369 457.5103845307562 875.0215973210841 457.5103845307562Q878.4012992022215 457.5103845307562 882.6332737316457 457.62793937879576Q886.8652482610698 457.7454942268353 889.1869565098511 457.7454942268353L889.1869565098511 457.7454942268353Q895.7406392880566 457.7454942268353 901.4714381299852 457.304663546687Q907.1728482599038 456.8932215785485 910.87582597315 456.5699457464397Q914.5788036863961 456.24666991433094 914.5788036863961 456.24666991433094L914.5788036863961 456.24666991433094L914.9902456545346 457.304663546687L913.7265310381093 463.85834632489247Q906.5262965956863 464.0934560209716 903.8813125147962 465.2396157893573Q901.236328433906 466.4151642697529 901.236328433906 469.3834241827518L901.236328433906 469.3834241827518Q901.236328433906 470.8528597832463 902.5294317623412 476.26038279306607Q903.7931463787666 481.63851709087595 905.9091336434785 489.1620273654078Q908.0251209081906 496.65614892792985 910.2292743089324 504.59110117060015Q912.462816421684 512.5260534132705 914.5788036863961 519.5205668716244Q916.6947909511082 526.5150803299782 917.9585055675335 530.835220995432Q919.2222201839588 535.1847503728958 919.2222201839588 535.1847503728958L919.2222201839588 535.1847503728958L920.0744928322456 535.1847503728958Q927.9212789388863 515.7000343103387 933.5051342207654 502.18122678578914Q939.1183782146544 488.63303054922983 942.0866381276533 480.7862444425891Q945.0548980406522 472.9688470479584 945.0548980406522 470.44141781510785L945.0548980406522 470.44141781510785Q945.0548980406522 467.47315790210894 943.0270769119699 466.4151642697529Q941.0286444952973 465.35717063739685 935.9443973175862 465.35717063739685L935.9443973175862 465.35717063739685L927.9212789388863 465.35717063739685L927.0690062905994 464.0934560209716L928.1269999229555 457.5103845307562Q928.1269999229555 457.5103845307562 931.6242566521324 457.5103845307562Q935.0921246692994 457.5103845307562 940.3820928310797 457.62793937879576Q945.6720609928599 457.7454942268353 950.756308170571 457.7454942268353L950.756308170571 457.7454942268353Q954.5768407318566 457.7454942268353 958.6030942772115 457.62793937879576Q962.5999591105566 457.5103845307562 965.3624980394864 457.5103845307562Q968.125036968416 457.5103845307562 968.125036968416 457.5103845307562L968.125036968416 457.5103845307562L966.6262126559116 465.35717063739685Q962.1885171424182 465.97433358960456 959.6610879095676 468.9425935026035Q957.1042699647071 471.91085341560233 953.0780164193521 481.2270751227375L953.0780164193521 481.2270751227375L922.8370317611752 553.3763631070177ZM1015.2939197442895 555.9037923398682L1015.2939197442895 555.9037923398682Q1001.9808332038094 555.9037923398682 992.0180598324566 549.9966612258804Q982.0846751731137 544.0601413998826 976.4714311792247 533.5977599243616Q970.8581871853357 523.1059897368309 970.8581871853357 509.1463515321331L970.8581871853357 509.1463515321331Q970.8581871853357 498.36069422450345 974.5611648985819 488.63303054922983Q978.264142611828 478.90536687395615 984.8178253900335 471.38185659942434Q991.4008968802489 463.85834632489247 999.7472910910577 459.53820565943863Q1008.0936853018666 455.1886762819749 1017.6156279930709 455.1886762819749L1017.6156279930709 455.1886762819749Q1049.149715979683 455.1886762819749 1049.149715979683 485.87049162030013L1049.149715979683 485.87049162030013Q1049.149715979683 488.63303054922983 1048.7382740115445 491.6012904622287Q1048.2974433313962 494.54016166321776 1047.8860013632577 496.24470695979136L1047.8860013632577 496.24470695979136L1045.123462434328 498.77213619264194L986.7280916706763 498.77213619264194Q986.5223706866071 517.6103005909815 993.6050502809907 528.5135127466507Q1000.6877298753741 539.4167249023199 1013.6187631597259 541.2094363349232Q1026.5204077320675 543.0021477675265 1044.065468801972 534.9790293888266L1044.065468801972 534.9790293888266L1045.358572130407 535.390471356965L1047.6802803791884 541.5327121670321Q1043.4483058497642 544.5009720800309 1037.629340871806 547.8806739611682Q1031.8103758938478 551.2603758423056 1025.87385606785 553.5820840910869Q1019.966724953862 555.9037923398682 1015.2939197442895 555.9037923398682ZM987.5803643189632 490.95473879801114L987.5803643189632 490.95473879801114L1025.87385606785 489.04447251736826Q1029.0478369649181 488.63303054922983 1030.1058305972742 487.5750369168738Q1031.1638242296303 486.51704328451774 1031.1638242296303 483.3430623874496L1031.1638242296303 483.3430623874496Q1031.1638242296303 474.87911332860125 1026.6085738680972 470.44141781510785Q1022.0827122185742 465.97433358960456 1013.6187631597259 465.97433358960456L1013.6187631597259 465.97433358960456Q1003.8617107724424 465.97433358960456 996.6908650420291 472.6455712158496Q989.490630599606 479.31680884209464 987.5803643189632 490.95473879801114ZM1126.3832511416742 555.9037923398682L1127.235523789961 547.2341222969507Q1133.5834855840972 545.5589657123869 1136.346024513027 542.2674299672792Q1139.0791747299468 538.9758942221715 1139.0791747299468 533.4802050763221L1139.0791747299468 533.4802050763221L1139.9314473782335 491.6012904622287Q1139.9314473782335 481.02135413866824 1135.3761970167006 475.29055529673974Q1130.8209466551675 469.589145166821 1122.3569975963192 469.589145166821L1122.3569975963192 469.589145166821Q1117.3021391306181 469.589145166821 1112.0121709688378 471.7051324315331Q1106.7222028070578 473.8211196962452 1102.5783944136633 476.3485489290957Q1098.4639747322785 478.90536687395615 1096.3479874675666 480.5805234585199L1096.3479874675666 480.5805234585199Q1096.1422664834972 486.0762126043694 1095.8189906513885 493.5997228789013Q1095.4957148192798 501.12323315343315 1095.1724389871708 508.9406305480639Q1094.8491631550621 516.7580279426946 1094.6434421709928 523.1059897368309Q1094.4377211869237 529.4539515309672 1094.4377211869237 532.6279324280354L1094.4377211869237 532.6279324280354Q1094.4377211869237 539.2110039182508 1096.230432619527 541.8559879991408Q1098.0231440521302 544.5009720800309 1102.049397597485 544.5009720800309L1102.049397597485 544.5009720800309Q1103.9596638781281 544.5009720800309 1106.7222028070578 544.2658623839518Q1109.4553530239775 544.0601413998826 1109.4553530239775 544.0601413998826L1109.4553530239775 544.0601413998826L1109.8961837041259 544.9124140481694L1107.985917423483 554.0229147712353Q1107.985917423483 554.0229147712353 1104.811936526415 553.7878050751563Q1101.6379556293468 553.5820840910869 1097.2002601158533 553.4939179550573Q1092.7331758903501 553.3763631070177 1088.736311057005 553.3763631070177L1088.736311057005 553.3763631070177Q1084.2692268315018 553.3763631070177 1079.4200893498698 553.6996389391265Q1074.541563156228 554.0229147712353 1071.1618612750908 554.3168018913342Q1067.7821593939534 554.640077723443 1067.7821593939534 554.640077723443L1067.7821593939534 554.640077723443L1068.8401530263093 545.9704076805253Q1074.9823938363763 544.9124140481694 1077.509823069227 542.1498751192397Q1080.0372523020776 539.4167249023199 1080.0372523020776 533.4802050763221L1080.0372523020776 533.4802050763221L1080.0372523020776 481.8442380749452Q1080.0372523020776 474.67339234453203 1077.715544053296 471.7932985675628Q1075.3938358045148 468.9425935026035 1069.692425674596 468.9425935026035L1069.692425674596 468.9425935026035L1067.341328713805 468.9425935026035L1066.7241657615973 468.09032085431664L1067.341328713805 461.12519610797267Q1074.7472841402973 459.8614814915474 1081.5360766145818 458.4802120270826Q1088.2954803768566 457.0989425626177 1092.6450097543204 456.0409489302617Q1096.965150419774 454.9829552979056 1096.965150419774 454.9829552979056L1096.965150419774 454.9829552979056L1098.2582537482094 456.6875005944793Q1098.2582537482094 456.6875005944793 1097.2884262518828 460.91947512390345Q1096.3479874675666 465.15144965332763 1095.907156787418 470.64713879917707L1095.907156787418 470.64713879917707L1096.3479874675666 471.2643017513848Q1098.2582537482094 470.00058713495946 1102.372673429594 467.3556030540694Q1106.4870931109785 464.71061897317924 1111.2480644565808 461.9774687562595Q1116.009035802183 459.2149298273298 1120.4761200276862 457.21649741065727Q1124.9138155411797 455.1886762819749 1127.4412447740303 455.1886762819749L1127.4412447740303 455.1886762819749Q1140.7837200265203 455.1886762819749 1148.6011174211512 462.5946317084672Q1156.4479035277918 470.00058713495946 1156.4479035277918 482.4907897391628L1156.4479035277918 482.4907897391628Q1156.4479035277918 485.2533286680924 1156.0070728476435 491.6012904622287Q1155.5956308795048 497.94925225636496 1154.9490792152874 505.76664965099576Q1154.3319162630796 513.5840470456264 1153.8910855829313 520.7842814880496Q1153.4796436147928 527.9845159304726 1153.4796436147928 532.6279324280354L1153.4796436147928 532.6279324280354Q1153.4796436147928 538.7701732381023 1155.1548001993567 541.6208783030617Q1156.8593454959303 544.5009720800309 1160.885599041285 544.5009720800309L1160.885599041285 544.5009720800309Q1162.795865321928 544.5009720800309 1165.529015538848 544.2658623839518Q1168.2915544677776 544.0601413998826 1168.2915544677776 544.0601413998826L1168.2915544677776 544.0601413998826L1168.702996435916 544.9124140481694L1167.0278398513522 554.0229147712353Q1167.0278398513522 554.0229147712353 1165.205739706739 553.9053599231958Q1163.4130282741357 553.7878050751563 1160.5623232091764 553.6996389391265Q1157.711618144217 553.5820840910869 1154.4200823991093 553.4939179550573Q1151.1579353660115 553.3763631070177 1148.1896754530126 553.3763631070177L1148.1896754530126 553.3763631070177Q1144.8099735718754 553.3763631070177 1141.106995858629 553.7878050751563Q1137.404018145383 554.2286357553046 1133.9949275522358 554.640077723443Q1130.6152256710984 555.0809084035914 1128.4992384063862 555.4923503717298Q1126.3832511416742 555.9037923398682 1126.3832511416742 555.9037923398682L1126.3832511416742 555.9037923398682ZM1217.5764245083633 555.9037923398682L1217.5764245083633 555.9037923398682Q1203.205344335527 555.9037923398682 1197.2688245095292 550.08482736191Q1191.3616933955414 544.2658623839518 1191.3616933955414 530.3062241792541L1191.3616933955414 530.3062241792541L1191.3616933955414 478.2588152097386Q1191.3616933955414 472.55740507981994 1188.8048754506808 470.20630811902873Q1186.2774462178302 467.88459987024737 1179.2829327594764 467.67887888617815L1179.2829327594764 467.67887888617815L1178.4306601111896 466.4151642697529L1179.4886537435457 460.0672024756166Q1184.5729009212566 457.5103845307562 1189.3338722668589 454.2482374976584Q1194.094843612461 450.9567017525507 1197.7978213257072 447.90027570352214Q1201.5007990389533 444.81446094248366 1203.6167863036653 442.81602852581113Q1205.7327735683775 440.8175961091386 1205.7327735683775 440.8175961091386L1205.7327735683775 440.8175961091386L1209.9647480978017 442.49275269370236Q1209.9647480978017 442.49275269370236 1209.4357512816237 446.51900623905726Q1208.9067544654456 450.5452597844122 1208.2895915132378 458.362657179043L1208.2895915132378 458.362657179043L1239.3828488197018 457.7454942268353L1240.0294004839193 458.362657179043L1238.1191342032764 469.589145166821L1207.437318864951 468.9425935026035Q1206.7907672007336 478.90536687395615 1206.379325232595 492.2184534144364Q1205.9384945524466 505.56092866692654 1205.9384945524466 521.8422751204056L1205.9384945524466 521.8422751204056Q1205.9384945524466 532.6279324280354 1209.641472265693 537.0950166535386Q1213.3444499789389 541.5327121670321 1222.454950702005 541.5327121670321L1222.454950702005 541.5327121670321Q1227.7449188637852 541.5327121670321 1232.3001692253183 539.6224458863892Q1236.855419586851 537.7121796057463 1236.855419586851 537.7121796057463L1236.855419586851 537.7121796057463L1238.9714068515632 543.2078687515957Q1238.9714068515632 543.2078687515957 1236.4145889067026 545.1181350322386Q1233.8871596738522 547.0284013128814 1230.184181960606 549.5558305457321Q1226.48120424736 552.1126484905924 1222.983947518183 554.0229147712353Q1219.486690789006 555.9037923398682 1217.5764245083633 555.9037923398682ZM1310.4741431716259 552.3183694746617L1296.9259469350663 556.9617859722243Q1296.9259469350663 556.9617859722243 1295.5740661826117 552.2008146266221Q1294.1927967181468 547.4398432810199 1291.753533621326 538.8877280861419Q1289.314270524505 530.3062241792541 1285.9345686433676 519.1091249034858Q1282.5548667622302 507.88263691570785 1278.646168064915 494.7752713592969Q1274.7080806555896 481.63851709087595 1270.3879399901357 467.67887888617815Q1266.0384106126721 453.71924068148036 1261.6007150991786 439.9653234608518L1261.6007150991786 439.9653234608518Q1259.6904488185357 433.8230826507847 1255.1351984570028 430.9723775858254Q1250.6093368074798 428.1216725208661 1242.5568297167697 427.88656282478695L1242.5568297167697 427.88656282478695Q1242.5568297167697 427.68084184071773 1242.43927486873 427.47512085664846Q1242.3511087327006 427.26939987257924 1242.3511087327006 427.06367888851L1242.3511087327006 427.06367888851L1243.6148233491258 417.9531781654441Q1243.6148233491258 417.9531781654441 1248.170073710659 418.15889914951333Q1252.7253240721918 418.36462013358255 1258.4267342021103 418.48217498162217Q1264.128144332029 418.59972982966167 1267.5372349251763 418.59972982966167L1267.5372349251763 418.59972982966167Q1275.148911335738 418.59972982966167 1282.1140360820818 417.9531781654441Q1289.108549540436 417.30662650122656 1293.6637999019688 416.7776296850485Q1298.2190502635017 416.24863286887046 1298.2190502635017 416.24863286887046L1298.2190502635017 416.24863286887046L1298.8362132157094 417.7474571813749L1297.9839405674225 426.005685256154Q1290.8130948370094 426.41712722429247 1286.875007427684 427.35756600860896Q1282.9663087303688 428.32739350493534 1281.3793182818347 430.0025500894991Q1279.7923278333005 431.70709538607264 1279.7923278333005 434.6753552990716L1279.7923278333005 434.6753552990716Q1279.7923278333005 436.3505118836353 1281.1735972977654 442.6103075417419Q1282.5548667622302 448.8407144878386 1284.8765750110115 457.7454942268353Q1287.1982832597928 466.6208852538221 1290.0489883247524 476.7893796092441Q1292.9290821017214 486.9284852526562 1295.6622323186411 496.89125862400897Q1298.4247712475708 506.82464328335175 1300.7464794963523 514.9653165100914Q1303.0681877451334 523.1059897368309 1304.4494572095982 527.9845159304726Q1305.8307266740633 532.8630421241144 1305.8307266740633 532.8630421241144L1305.8307266740633 532.8630421241144L1307.0944412904885 532.8630421241144Q1310.0627012034874 524.8105350334046 1313.0309611164862 516.669861806665Q1315.9698323174753 508.5291885799254 1319.0556470785136 500.359126641176Q1322.1120731275423 492.2184534144364 1325.0803330405413 484.0777801876969Q1328.0485929535403 475.9371069609573 1331.016852866539 467.7964337342177Q1333.955724067528 459.6263717954683 1336.9239839805268 451.60325341676827L1336.9239839805268 451.60325341676827Q1336.07171133224 448.63499350376935 1335.1312725479236 445.6667335907705Q1334.190833763607 442.6984736777716 1333.1328401312512 439.9653234608518L1333.1328401312512 439.9653234608518Q1331.016852866539 433.6173616667155 1326.461602505006 430.85482273778587Q1321.9063521434732 428.1216725208661 1314.0889547488423 427.88656282478695L1314.0889547488423 427.88656282478695L1313.648124068694 427.06367888851L1315.1469483811984 417.9531781654441Q1315.1469483811984 417.9531781654441 1317.7919324620884 418.0707330134837Q1320.4369165429785 418.15889914951333 1324.4337813763236 418.2764539975529Q1328.4600349216785 418.36462013358255 1332.4862884670335 418.48217498162217Q1336.5125420123886 418.59972982966167 1339.039971245239 418.59972982966167L1339.039971245239 418.59972982966167Q1345.3879330393754 418.59972982966167 1352.5881674817983 417.9531781654441Q1359.7884019242215 417.30662650122656 1364.7550942538928 416.7776296850485Q1369.7217865835642 416.24863286887046 1369.7217865835642 416.24863286887046L1369.7217865835642 416.24863286887046L1370.3683382477818 417.7474571813749L1369.516065599495 426.005685256154Q1362.315831157072 426.41712722429247 1358.289577611717 427.35756600860896Q1354.2927127783719 428.32739350493534 1352.705722329838 430.0025500894991Q1351.118731881304 431.70709538607264 1351.118731881304 434.8810762831408L1351.118731881304 434.8810762831408Q1351.118731881304 436.3505118836353 1352.4706126337587 442.4045865576727Q1353.8518820982235 448.42927251970013 1356.2911451950445 457.304663546687Q1358.7304082918654 466.2094432856837 1361.4635585087854 476.3485489290957Q1364.2260974377148 486.51704328451774 1366.9886363666446 496.4504279438606Q1369.7217865835642 506.4132013152133 1372.161049680385 514.6420406779825Q1374.600312777206 522.9002687527617 1375.9815822416708 527.8669610824331Q1377.333462994126 532.8630421241144 1377.333462994126 532.8630421241144L1377.333462994126 532.8630421241144L1378.626566322561 532.8630421241144Q1381.3597165394808 525.6628076816913 1384.8569732686578 516.140864990487Q1388.3542299978349 506.6189222992826 1392.1453738471105 496.1271521117518Q1395.9659064083962 485.6647706362309 1399.6688841216423 475.40811014477924Q1403.3718618348885 465.15144965332763 1406.3401217478875 456.45239089840015Q1409.3083816608864 447.7827208554826 1411.1010930934895 441.87558974149465Q1412.893804526093 435.9390699154968 1412.893804526093 434.46963431500234L1412.893804526093 434.46963431500234Q1412.893804526093 430.44338076964743 1409.5141026449555 428.7388354730738Q1406.1344007638181 427.06367888851 1398.4933356412466 427.06367888851L1398.4933356412466 427.06367888851L1387.9133993176863 427.06367888851L1387.5019573495479 426.2114062402232L1388.9713929500422 417.1009055171573Q1388.9713929500422 417.1009055171573 1393.5266433115753 417.42418134926606Q1398.0818936731084 417.7474571813749 1404.8412974353828 418.15889914951333Q1411.6300899096675 418.59972982966167 1418.3894936719425 418.59972982966167L1418.3894936719425 418.59972982966167Q1423.268019865584 418.59972982966167 1428.4404331793248 418.48217498162217Q1433.6422352050754 418.36462013358255 1437.227658070282 418.15889914951333Q1440.8130809354884 417.9531781654441 1440.8130809354884 417.9531781654441L1440.8130809354884 417.9531781654441L1439.343645334994 427.88656282478695Q1433.201404524927 428.1216725208661 1430.6739752920764 430.0025500894991Q1428.117157347216 431.9128163701419 1425.7954490984346 438.0550571802089L1425.7954490984346 438.0550571802089L1381.3597165394808 552.3183694746617L1368.2523509830698 556.9617859722243Q1368.2523509830698 556.9617859722243 1366.1363637183576 549.5558305457321Q1364.0203764536457 542.1498751192397 1360.4055648764293 529.4539515309672Q1356.8201420112225 516.7580279426946 1352.0591706656203 500.68240247328475Q1347.2981993200183 484.60677700387487 1341.8025101741687 467.2674369180397L1341.8025101741687 467.2674369180397L1340.5387955577435 467.2674369180397L1310.4741431716259 552.3183694746617ZM1453.3032835396916 555.4923503717298L1453.3032835396916 555.4923503717298L1454.566998156117 545.7646866964562Q1464.0889408473215 544.5009720800309 1467.5861975764983 540.7979943667848Q1471.0834543056753 537.0950166535386 1471.0834543056753 527.9845159304726L1471.0834543056753 527.9845159304726L1471.2891752897444 439.11305081256495Q1471.2891752897444 432.35364705029025 1469.8197396892501 430.0025500894991Q1468.3209153767457 427.68084184071773 1463.4717778951137 427.68084184071773L1463.4717778951137 427.68084184071773Q1462.2080632786885 427.68084184071773 1460.092076013976 427.7983966887573Q1457.9760887492644 427.88656282478695 1456.2715434526908 428.1216725208661L1456.2715434526908 428.1216725208661L1455.8601014845522 427.26939987257924L1457.3295370850467 417.9531781654441Q1460.9149599502534 417.9531781654441 1465.9992071279644 418.15889914951333Q1471.0834543056753 418.36462013358255 1476.5791434515247 418.48217498162217Q1482.074832597374 418.59972982966167 1486.7476378069468 418.59972982966167L1486.7476378069468 418.59972982966167Q1503.6755359246436 418.59972982966167 1515.1959110325201 418.36462013358255Q1526.745674852407 418.15889914951333 1534.9745142151764 417.5417361973057Q1543.2327422899557 416.89518453308807 1550.2272557483093 416.04291188480124L1550.2272557483093 416.04291188480124L1550.844418700517 417.30662650122656Q1549.786425068161 422.3908736789375 1548.7284314358049 428.6506693370441Q1547.670437803449 434.8810762831408 1547.0532748512412 441.0233170932078Q1546.4067231870235 447.1655579032749 1545.995281218885 452.4555260650551L1545.995281218885 452.4555260650551L1535.8267868634632 453.278410001332Q1536.0325078475325 451.39753243269905 1536.1500626955722 448.51743865572985Q1536.2676175436115 445.6667335907705 1536.2676175436115 444.19729799027596L1536.2676175436115 444.19729799027596Q1536.2676175436115 439.11305081256495 1535.2977900472852 436.05662476353643Q1534.3573512629687 432.97081000249796 1531.2715365019303 431.5013744020034Q1528.2151104529016 430.0025500894991 1521.6614276746964 429.5911081213606Q1515.1077448964907 429.1796661532221 1503.8812569087127 429.1796661532221L1503.8812569087127 429.1796661532221Q1497.1218531464378 429.1796661532221 1493.94787224937 429.5911081213606Q1490.7738913523017 430.0025500894991 1490.0097848400444 431.70709538607264Q1489.2750670397972 433.4116406826463 1489.069346055728 437.40850551599135L1489.069346055728 437.40850551599135L1486.953358791016 486.72276426858696L1486.1010861427292 531.1584968275408Q1486.1010861427292 536.8599069574595 1487.1590797750853 539.5048910383496Q1488.2170734074411 542.1498751192397 1491.7143301366182 543.0021477675265Q1495.2115868657952 543.8544204158134 1502.8232632763566 543.8544204158134L1502.8232632763566 543.8544204158134Q1515.3134658805598 543.8544204158134 1522.9251422911216 543.0021477675265Q1530.536818701683 542.1498751192397 1534.563072247038 539.6224458863892Q1538.589325792393 537.0950166535386 1540.4995920730357 531.893214627788Q1542.3804696416687 526.7208013140473 1543.6735729701038 518.0511312711299L1543.6735729701038 518.0511312711299L1552.9604059652293 516.9931376387738L1553.6069576294467 518.0511312711299Q1552.1375220289524 524.6048140493353 1550.550531580418 534.7439196927473Q1548.963541131884 544.9124140481694 1547.905547499528 553.5820840910869L1547.905547499528 553.5820840910869L1546.847553867172 554.8457987075122Q1534.1516302788996 554.4343567393738 1521.5438728266568 554.111080907265Q1508.9655040864238 553.7878050751563 1498.7970097310017 553.5820840910869Q1488.6579040875895 553.3763631070177 1482.721384261592 553.3763631070177L1482.721384261592 553.3763631070177Q1476.1677014833863 553.3763631070177 1467.7919185605674 553.9053599231958Q1459.4455243497587 554.4343567393738 1453.3032835396916 555.4923503717298ZM1483.9850988780172 491.16045978208035L1483.9850988780172 491.16045978208035L1485.8953651586598 478.4645361938078Q1487.3648007591544 478.4645361938078 1491.5967752885786 478.4645361938078Q1495.828749818003 478.4645361938078 1500.7072760116448 478.5820910418474Q1505.5858022052862 478.67025717787703 1509.171225070493 478.67025717787703L1509.171225070493 478.67025717787703Q1512.7566479356994 478.67025717787703 1520.2801582102313 477.9355393776298Q1527.8036684847634 477.20082157738256 1534.9745142151764 476.3485489290957L1534.9745142151764 476.3485489290957L1535.8267868634632 477.40654256145183L1532.8585269504645 489.8967451656551Q1526.9513958364764 489.6910241815859 1518.1641709455193 489.4853031975166Q1509.3769460545623 489.2501935014375 1503.234705244495 489.2501935014375L1503.234705244495 489.2501935014375Q1499.23784041115 489.2501935014375 1493.8303174013304 489.77919031761553Q1488.4227943915105 490.3081871337936 1483.9850988780172 491.16045978208035ZM1636.3361819372874 555.4923503717298L1636.3361819372874 555.4923503717298L1635.7190189850799 554.0229147712353L1636.5419029213567 545.7646866964562Q1643.947858347849 545.1181350322386 1647.9741118932038 544.2658623839518Q1652.000365438559 543.4429784476749 1653.7049107351327 541.8559879991408Q1655.380067319696 540.2689975506067 1655.380067319696 537.7121796057463L1655.380067319696 537.7121796057463Q1655.380067319696 535.5961923410342 1654.9686253515576 533.0687631081837Q1654.5277946714095 530.5119451633232 1653.4698010390532 527.5730739623342L1653.4698010390532 527.5730739623342L1646.5046762927095 504.5029350345705Q1642.6841437314238 504.2972140505012 1635.8071851211093 504.2972140505012Q1628.9302265107951 504.2972140505012 1624.4925309973014 504.2972140505012L1624.4925309973014 504.2972140505012Q1618.3502901872346 504.2972140505012 1611.6790525609895 504.914377002709Q1605.0372036467545 505.56092866692654 1601.422392069538 505.972370635065L1601.422392069538 505.972370635065L1593.6049946749072 527.9845159304726Q1591.6947283942643 533.6859260603914 1591.6947283942643 536.2427440052518L1591.6947283942643 536.2427440052518Q1591.6947283942643 540.8861605028144 1594.751154443293 542.9139816314969Q1597.8369692043314 544.9124140481694 1604.3906519825368 544.9124140481694L1604.3906519825368 544.9124140481694L1616.440023906592 544.9124140481694L1616.88085458674 545.7646866964562L1615.6171399703148 554.8457987075122Q1615.6171399703148 554.8457987075122 1611.1500557448117 554.4343567393738Q1606.7123602313181 554.0229147712353 1599.9529564690433 553.6996389391265Q1593.1641639947588 553.3763631070177 1586.199039248415 553.3763631070177L1586.199039248415 553.3763631070177Q1581.114792070704 553.3763631070177 1575.7072690608843 553.4939179550573Q1570.3291347630743 553.5820840910869 1566.6261570498282 553.7878050751563Q1562.923179336582 554.0229147712353 1562.923179336582 554.0229147712353L1562.923179336582 554.0229147712353L1564.5983359211455 544.0601413998826Q1570.5348557471434 543.4429784476749 1574.12027861235 540.0338878545276Q1577.7350901895666 536.6541859733902 1581.114792070704 527.7787949464034L1581.114792070704 527.7787949464034L1622.3765437325897 419.6577234620177L1635.7190189850799 416.04291188480124L1637.3941755696435 416.04291188480124Q1637.3941755696435 416.04291188480124 1638.7754450341083 421.0096042144727Q1640.1567144985731 426.005685256154 1642.5959775953938 434.7635214351012Q1645.005851980205 443.5507463260584 1648.2973877253125 454.86540044986606Q1651.5889234704205 466.2094432856837 1655.2919011836666 478.90536687395615Q1658.9948788969127 491.6012904622287 1662.9917437302577 504.59110117060015Q1667.0179972756127 517.6103005909815 1671.0442508209676 529.4539515309672L1671.0442508209676 529.4539515309672Q1673.5716800538182 537.3007376376079 1677.9212094312818 540.474718534676Q1682.2707388087456 543.648699431744 1691.3518508198017 544.5009720800309L1691.3518508198017 544.5009720800309L1691.79268149995 545.3238560163079L1690.2938571874456 554.0229147712353Q1690.2938571874456 554.0229147712353 1686.179437506061 553.7878050751563Q1682.0356291126666 553.5820840910869 1676.7456609508863 553.4939179550573Q1671.4556927891063 553.3763631070177 1667.8702699238997 553.3763631070177L1667.8702699238997 553.3763631070177Q1659.8177628331896 553.3763631070177 1652.5293622547367 553.9053599231958Q1645.240961676284 554.4343567393738 1640.7738774507807 554.9633535555517Q1636.3361819372874 555.4923503717298 1636.3361819372874 555.4923503717298ZM1625.3448036455884 439.11305081256495L1605.2429246308238 495.59815529557375L1623.845979333084 495.59815529557375Q1628.0779538625084 495.59815529557375 1634.0144736885059 495.1867133274353Q1639.9509935145038 494.7752713592969 1643.5364163797103 494.54016166321776L1643.5364163797103 494.54016166321776L1626.814239246083 439.11305081256495L1625.3448036455884 439.11305081256495ZM1704.0477744080745 555.4923503717298L1704.0477744080745 555.4923503717298L1705.3114890244992 545.7646866964562Q1713.5697170992785 544.5009720800309 1716.6555318603168 540.7979943667848Q1719.7119579093458 537.0950166535386 1719.7119579093458 527.9845159304726L1719.7119579093458 527.9845159304726L1719.9176788934149 439.11305081256495Q1719.9176788934149 432.35364705029025 1718.4482432929203 430.0025500894991Q1716.9494189804159 427.68084184071773 1712.100281498784 427.68084184071773L1712.100281498784 427.68084184071773Q1710.1900152181413 427.68084184071773 1707.5450311372513 427.88656282478695Q1704.900047056361 428.1216725208661 1704.900047056361 428.1216725208661L1704.900047056361 428.1216725208661L1704.4886050882224 427.26939987257924L1705.9580406887171 417.9531781654441Q1705.9580406887171 417.9531781654441 1710.1900152181413 418.15889914951333Q1714.4219897475655 418.36462013358255 1720.0352337414545 418.48217498162217Q1725.6484777353435 418.59972982966167 1729.6453425686886 418.59972982966167L1729.6453425686886 418.59972982966167Q1733.0544331618357 418.59972982966167 1736.9631318591514 418.2764539975529Q1740.8718305564666 417.9531781654441 1744.3690872856432 417.6299023333353Q1747.8663440148202 417.30662650122656 1750.070497415562 417.01273938112763Q1752.3040395283138 416.6894635490188 1752.3040395283138 416.6894635490188L1752.3040395283138 416.6894635490188L1751.4517668800272 426.2114062402232Q1744.4572534216732 427.06367888851 1741.7241032047532 428.944556457143Q1738.9615642758235 430.85482273778587 1738.5501223076853 434.7635214351012Q1738.109291627537 438.7016088444265 1737.4921286753292 445.8724545748397L1737.4921286753292 445.8724545748397Q1736.6398560270422 459.0092088432606 1735.9933043628248 474.35011651242326Q1735.376141410617 489.6910241815859 1735.170420426548 503.76821723432323Q1734.9353107304687 517.8160215750506 1734.9353107304687 527.5730739623342L1734.9353107304687 527.5730739623342Q1734.9353107304687 534.7439196927473 1736.1108592108644 538.2411764219244Q1737.2864076912601 541.7384331511013 1741.1951063885754 542.7964267834573Q1745.1038050858906 543.8544204158134 1752.9212024805215 543.8544204158134L1752.9212024805215 543.8544204158134Q1762.2374241876564 543.8544204158134 1767.9682230295853 542.7964267834573Q1773.669633159504 541.7384331511013 1777.166889888681 538.5644522540331Q1780.664146617858 535.390471356965 1782.7801338825698 529.4539515309672Q1784.896121147282 523.5468204169792 1786.5712777318458 513.8191567417057L1786.5712777318458 513.8191567417057L1795.8874994389807 512.7611631093496L1796.5340511031986 513.8191567417057Q1796.5340511031986 513.8191567417057 1795.4760574708425 519.5205668716244Q1794.4180638384864 525.221977001543 1793.0367943740216 534.3324777246089Q1791.6555249095568 543.4429784476749 1790.3918102931316 554.0229147712353L1790.3918102931316 554.0229147712353L1789.3338166607755 555.2866293876606Q1789.3338166607755 555.2866293876606 1783.3972968347775 554.9633535555517Q1777.4901657207897 554.640077723443 1768.379664997724 554.3168018913342Q1759.2691642746577 554.0229147712353 1749.6590554474237 553.6996389391265Q1740.0195579081796 553.3763631070177 1732.4078814976183 553.3763631070177L1732.4078814976183 553.3763631070177Q1724.5904841029874 553.3763631070177 1718.1249674608116 553.9053599231958Q1711.6594508186358 554.4343567393738 1707.8683069693598 554.9633535555517Q1704.0477744080745 555.4923503717298 1704.0477744080745 555.4923503717298ZM1814.9313848213897 554.2286357553046L1814.9313848213897 554.2286357553046L1816.6359301179632 545.1181350322386Q1826.5693147773063 544.2658623839518 1831.0070102907994 542.4731509513485Q1835.4447058042929 540.6804395187452 1836.6202542846886 535.5080262050045Q1837.7958027650843 530.3062241792541 1837.7958027650843 519.1091249034858L1837.7958027650843 519.1091249034858L1837.7958027650843 426.8285691924309Q1825.5113211449502 427.26939987257924 1818.4286415505667 428.0041176728265Q1811.3459619561831 428.7388354730738 1807.9368713630356 431.17809856989464Q1804.5571694818987 433.6173616667155 1803.087733881404 438.90732982849573Q1801.5889095688995 444.19729799027596 1800.3251949524742 453.51351969741114L1800.3251949524742 453.51351969741114L1790.3918102931316 454.33640363368806Q1791.2440829414181 448.2235515356309 1791.861245893626 441.64048004541553Q1792.5077975578433 435.08679726721004 1792.919239525982 428.85639032111334Q1793.3600702061303 422.5965946630067 1793.5657911901994 417.7474571813749L1793.5657911901994 417.7474571813749L1795.4760574708425 416.04291188480124L1813.0211185407466 418.36462013358255L1878.6167237468217 418.36462013358255L1896.602615496874 416.04291188480124L1898.5128817775171 417.7474571813749Q1898.7186027615862 422.5965946630067 1899.1594334417346 428.85639032111334Q1899.5708754098732 435.08679726721004 1900.3055932101206 441.4347590613463Q1901.0403110103675 447.7827208554826 1901.6868626745854 453.51351969741114L1901.6868626745854 453.51351969741114L1891.7534780152423 454.33640363368806Q1890.2546537027379 444.81446094248366 1888.667663254204 439.4363266446738Q1887.08067280567 434.028803634854 1883.8185257725722 431.58954053803313Q1880.5269900274643 429.1796661532221 1873.973307249259 428.32739350493534Q1867.4196244710533 427.47512085664846 1855.9874154992062 426.8285691924309L1855.9874154992062 426.8285691924309Q1855.3408638349883 433.1765309865672 1854.723700882781 445.0495706385628Q1854.0771492185631 456.8932215785485 1853.665707250425 471.58757758349356Q1853.2248765702766 486.3113223004485 1852.9016007381679 501.5346751215716Q1852.6077136180688 516.7580279426946 1852.6077136180688 529.6890612270463L1852.6077136180688 529.6890612270463Q1852.6077136180688 537.5064586216771 1855.3408638349883 540.7979943667848Q1858.1034027639184 544.0601413998826 1864.6570855421237 544.0601413998826L1864.6570855421237 544.0601413998826Q1871.0050473362598 544.0601413998826 1876.29501549804 543.4429784476749L1876.29501549804 543.4429784476749L1876.9415671622578 544.2658623839518L1875.0313008816147 554.0229147712353Q1870.5936053681212 553.7878050751563 1864.6570855421237 553.6996389391265Q1858.7205657161262 553.5820840910869 1853.1367104342467 553.4939179550573Q1847.5234664403579 553.3763631070177 1843.9086548631412 553.3763631070177L1843.9086548631412 553.3763631070177Q1840.5289529820038 553.3763631070177 1835.3565396682634 553.4939179550573Q1830.1547376425128 553.5820840910869 1824.7766033447028 553.7878050751563Q1819.3690803348832 554.0229147712353 1814.9313848213897 554.2286357553046ZM1916.2930525435008 555.9037923398682L1916.2930525435008 555.9037923398682L1917.5567671599256 546.1761286645947Q1927.4901518192687 544.2658623839518 1930.7816875643766 540.5628846707057Q1934.073223309484 536.8599069574595 1934.073223309484 527.9845159304726L1934.073223309484 527.9845159304726L1934.2789442935532 439.11305081256495Q1934.2789442935532 432.35364705029025 1932.7801199810492 430.0025500894991Q1931.3106843805544 427.68084184071773 1926.4321581869126 427.68084184071773L1926.4321581869126 427.68084184071773Q1925.1684435704874 427.68084184071773 1923.0524563057752 427.7983966887573Q1920.936469041063 427.88656282478695 1919.2613124564996 428.1216725208661L1919.2613124564996 428.1216725208661L1918.8204817763512 427.26939987257924L1920.3193060888557 417.9531781654441Q1925.1684435704874 418.15889914951333 1932.251123164871 418.36462013358255Q1939.3631914712646 418.59972982966167 1943.8008869847577 418.59972982966167L1943.8008869847577 418.59972982966167Q1947.8271405301125 418.59972982966167 1954.2632684602786 418.0707330134837Q1960.7287851024544 417.5417361973057 1966.430195232373 416.6894635490188L1966.430195232373 416.6894635490188L1965.5779225840865 426.2114062402232Q1959.6707914700983 427.06367888851 1956.8200864051391 428.6506693370441Q1953.9399926281699 430.23765978557816 1952.9995538438534 433.94063749882434Q1952.059115059537 437.6436152120705 1951.6182843793886 445.255291622632L1951.6182843793886 445.255291622632L1950.3545697629634 479.52252982616386L1985.9149112949303 479.72825081023313Q1992.8800360412743 479.72825081023313 1999.6688285155587 479.31680884209464Q2006.4282322778336 478.90536687395615 2017.2138895854632 477.61226354552105L2017.2138895854632 477.61226354552105L2017.4196105695328 439.11305081256495Q2017.4196105695328 432.35364705029025 2015.950174969038 430.0025500894991Q2014.4807393685437 427.68084184071773 2009.6022131749019 427.68084184071773L2009.6022131749019 427.68084184071773Q2008.132777574407 427.68084184071773 2006.1049564457248 427.7983966887573Q2004.1065240290523 427.88656282478695 2002.4019787324787 428.1216725208661L2002.4019787324787 428.1216725208661L2001.99053676434 427.26939987257924L2003.4599723648348 417.9531781654441Q2003.4599723648348 417.9531781654441 2007.28050492612 418.15889914951333Q2011.0716487753962 418.36462013358255 2015.950174969038 418.48217498162217Q2020.8287011626799 418.59972982966167 2024.2084030438173 418.59972982966167L2024.2084030438173 418.59972982966167Q2028.8518195413799 418.59972982966167 2036.052053983803 418.0707330134837Q2043.2522884262257 417.5417361973057 2049.6002502203623 416.6894635490188L2049.6002502203623 416.6894635490188L2048.7479775720753 426.2114062402232Q2040.9305801774449 427.26939987257924 2038.2855960965544 429.70866296940017Q2035.6406120156644 432.1185373542111 2035.1997813355156 438.2607781642782L2035.1997813355156 438.2607781642782Q2034.5826183833083 450.5452597844122 2034.05362156713 463.975901172932Q2033.5246247509522 477.40654256145183 2033.0837940708038 490.22002099776387Q2032.6723521026656 503.00411072206606 2032.466631118596 513.5840470456264Q2032.2315214225168 524.163983369187 2032.2315214225168 530.9527758434715L2032.2315214225168 530.9527758434715Q2032.2315214225168 538.7701732381023 2034.14178770316 541.4151573189924Q2036.052053983803 544.0601413998826 2041.5477431296522 544.0601413998826L2041.5477431296522 544.0601413998826Q2043.869451378434 544.0601413998826 2046.6319903073631 543.8544204158134Q2049.394529236293 543.648699431744 2051.0696858208566 543.4429784476749L2051.0696858208566 543.4429784476749L2051.510516501005 544.2658623839518L2049.6002502203623 554.0229147712353Q2044.3102820585818 553.7878050751563 2036.4634959519412 553.5820840910869Q2028.6460985573108 553.3763631070177 2023.5618513795994 553.3763631070177L2023.5618513795994 553.3763631070177Q2021.034422146749 553.3763631070177 2016.6848927692854 553.4939179550573Q2012.364752103831 553.5820840910869 2007.6919468942592 553.5820840910869Q2003.0485303966962 553.5820840910869 1999.2279978354104 553.7878050751563L1999.2279978354104 553.7878050751563L2001.1382641160535 544.2658623839518Q2007.8976678783279 544.0601413998826 2011.306758471475 542.3849848153188Q2014.6864603526128 540.6804395187452 2015.950174969038 535.8019133251034Q2017.2138895854632 530.9527758434715 2017.2138895854632 521.6365541363364L2017.2138895854632 521.6365541363364L2017.2138895854632 489.6910241815859Q2012.364752103831 489.6910241815859 2006.2225112937645 489.5734693335463Q2000.080270483697 489.4853031975166 1994.3788603537787 489.4853031975166Q1988.6480615118503 489.4853031975166 1985.0626386466433 489.4853031975166L1985.0626386466433 489.4853031975166Q1982.9466513819311 489.4853031975166 1977.3334073880424 489.77919031761553Q1971.7201633941531 490.1024661497243 1964.4317628157005 490.63146296590236Q1957.1139735252377 491.16045978208035 1949.9431277948247 491.80701144629796L1949.9431277948247 491.80701144629796L1949.0908551465382 529.6890612270463Q1949.0908551465382 538.1530102858947 1951.0011214271808 541.0918814868837Q1952.8819989958138 544.0601413998826 1958.407076853673 544.0601413998826L1958.407076853673 544.0601413998826Q1960.7287851024544 544.0601413998826 1963.4619353193743 543.8544204158134Q1966.224474248304 543.648699431744 1967.9290195448775 543.4429784476749L1967.9290195448775 543.4429784476749L1968.3404615130157 544.2658623839518L1966.430195232373 554.0229147712353Q1966.430195232373 553.7878050751563 1963.2562143353052 553.6996389391265Q1960.082233438237 553.5820840910869 1955.8502589088125 553.4939179550573Q1951.6182843793886 553.3763631070177 1948.4443034823203 553.3763631070177L1948.4443034823203 553.3763631070177Q1942.096341688184 553.3763631070177 1934.6022201256624 553.7878050751563Q1927.0787098511305 554.2286357553046 1921.78874168935 554.7576325714825Q1916.4987735275695 555.2866293876606 1916.2930525435008 555.9037923398682Z " fill="#f7c5cc" transform="matrix(0.4265149576657525,0,0,0.4265149576657525,0,94.43606297954233)"/></g></svg>