<svg xmlns="http://www.w3.org/2000/svg" version="1.1" xmlns:xlink="http://www.w3.org/1999/xlink" xmlns:svgjs="http://svgjs.dev/svgjs" width="100%" height="100%" viewBox="0 0 1000 600"><rect width="1000" height="600" x="0" y="0" fill="#358597"/><g><rect width="333.3333333333333" height="333.3333333333333" rx="13.333333333333334" ry="13.333333333333334" y="294.6271354465765" fill="#f4a896" transform="matrix(0.45887568704381476,0,0,0.45887568704381476,0,88.3234752206709)" x="272.4048156738281"/><path d="M330.17909371233134 411.79056534086214L330.17909371233134 411.79056534086214Q324.6606996764369 411.79056534086214 321.0309538667309 408.07228914555355Q317.4307181855591 404.354012950245 317.4307181855591 399.0421898140899L317.4307181855591 399.0421898140899Q317.4307181855591 393.52379577819545 321.0309538667309 389.8940499684894Q324.6606996764369 386.2938142873177 330.17909371233134 386.2938142873177L330.17909371233134 386.2938142873177Q335.69748774822585 386.2938142873177 339.2977234293976 389.8940499684894Q342.92746923910363 393.52379577819545 342.92746923910363 399.0421898140899L342.92746923910363 399.0421898140899Q342.92746923910363 404.354012950245 339.2977234293976 408.07228914555355Q335.69748774822585 411.79056534086214 330.17909371233134 411.79056534086214ZM352.69532178392217 535.2314329994001L308.93180116771094 535.2314329994001L308.93180116771094 531.8377682179676L322.2998893937013 525.0209285265685L322.2998893937013 461.72170282072017L309.55151386692904 450.65540462039706L309.55151386692904 449.1798981936873L338.0287879024272 437.4938872941461L339.2977234293976 437.4938872941461L339.2977234293976 525.0209285265685L352.69532178392217 531.8377682179676L352.69532178392217 535.2314329994001ZM429.5987167440345 536.293797626631L422.1621643534173 536.293797626631L383.09075417414306 406.03609027669415L367.1552847656777 398.3929669863376L367.1552847656777 394.9993022049052L421.0997997261863 394.9993022049052L421.0997997261863 398.3929669863376L403.03960106325894 406.2721713049677L429.5987167440345 498.2552419460537L430.6610813712655 498.2552419460537L467.4307015248725 393.93693757767414L475.2803957149684 393.93693757767414L512.9058095960671 498.2552419460537L514.1747451230375 498.2552419460537L540.3207190043343 406.47874220470703L522.260520341407 398.3929669863376L522.260520341407 394.9993022049052L569.2111348393112 394.9993022049052L569.2111348393112 398.3929669863376L554.9577427572951 406.2721713049677L515.4436806500079 536.293797626631L508.0071282593907 536.293797626631L469.3488598795952 432.1820641579909L468.28649525236415 432.1820641579909L429.5987167440345 536.293797626631Z " fill="#358597" transform="matrix(0.45887568704381476,0,0,0.45887568704381476,0,88.3234752206709)"/><path d="M754.2030380052865 536.2938006965246L754.2030380052865 536.2938006965246Q734.0824258217218 536.2938006965246 719.471681552185 528.0152926863932Q704.8609372826483 519.7093723980825 696.9662011670262 505.40016318851724Q689.071465051404 491.0909539789522 689.071465051404 472.75213987703825L689.071465051404 472.75213987703825Q689.071465051404 458.7170534492656 694.4990961308943 445.99775637409664Q699.9267272103843 433.27845929892766 709.3017263476856 423.41003915439995Q718.676725484987 413.5416190098723 731.0122506656465 407.8124528704104Q743.3477758463061 402.08328673094854 757.1635640486448 402.08328673094854L757.1635640486448 402.08328673094854Q767.0319841931725 402.08328673094854 773.9398782943418 403.371663805373Q780.8477723955112 404.6600408797974 786.3850525877184 406.8256108559577Q791.8949205017464 408.99118083211795 797.2403147466988 411.5679349809668L797.2403147466988 411.5679349809668L798.2271567611516 446.1074054868136L794.6635605978499 446.1074054868136L782.629570477162 422.01201296725856Q775.1186062560494 416.6940310004853 769.4990892293044 414.3091627988912Q763.8795722025595 411.9517068754762 756.7797921541354 411.9517068754762L756.7797921541354 411.9517068754762Q742.5528197791081 411.9517068754762 731.3960225601559 418.96925008936256Q720.2666376193831 425.9593810250696 713.8521645254401 438.40455531844617Q707.4376914314971 450.82231733364347 707.4376914314971 466.83108779032165L707.4376914314971 466.83108779032165Q707.4376914314971 485.58108606492425 713.6328663000062 498.90345326003654Q719.8554534466945 512.2258204551489 730.4091805457032 519.2159513908559Q740.9903199228911 526.2334946047423 753.8192661107771 526.2334946047423L753.8192661107771 526.2334946047423Q764.6745282697575 526.2334946047423 772.0758433781533 523.163319448667Q779.4771584865491 520.120556570771 785.1789123478317 516.3650744602146L785.1789123478317 516.3650744602146L797.0210165212649 495.2302079840179L800.3927267373118 495.2302079840179L798.2271567611516 526.6172664992516Q792.4979906216897 529.3859065953553 786.4672894222562 531.6611256842325Q780.4640005010018 533.9363447731098 772.7611503326343 535.1150727348172Q765.0583001642669 536.2938006965246 754.2030380052865 536.2938006965246ZM871.8291236724203 536.2938006965246L871.8291236724203 536.2938006965246Q859.0001774845343 536.2938006965246 849.1317573400067 530.1808626625534Q839.263337195479 524.067924628582 833.8357061159888 513.596434364111Q828.4080750364986 503.12494409964006 828.4080750364986 489.9122260172447L828.4080750364986 489.9122260172447Q828.4080750364986 476.69950793484935 833.8357061159888 466.2280176703783Q839.263337195479 455.7565274059073 849.1317573400067 449.643589371936Q859.0001774845343 443.5306513379647 871.8291236724203 443.5306513379647L871.8291236724203 443.5306513379647Q884.849955807561 443.5306513379647 894.6361391175509 449.643589371936Q904.3949101493616 455.7565274059073 909.8225412288518 466.2280176703783Q915.250172308342 476.69950793484935 915.250172308342 489.9122260172447L915.250172308342 489.9122260172447Q915.250172308342 503.12494409964006 909.8225412288518 513.596434364111Q904.3949101493616 524.067924628582 894.6361391175509 530.1808626625534Q884.849955807561 536.2938006965246 871.8291236724203 536.2938006965246ZM874.5977637685239 527.7959944609593L874.5977637685239 527.7959944609593Q882.6843858314007 527.7959944609593 887.7282450163816 522.8617843886954Q892.7446919231832 517.9275743164314 895.1295601247773 510.1424873135264Q897.4870160481922 502.35740031062124 897.4870160481922 493.8595940750558L897.4870160481922 493.8595940750558Q897.4870160481922 483.3881038105847 894.6361391175509 473.73898189149105Q891.7578499087303 464.06244769421806 885.6449118747591 457.94950966024675Q879.5319738407877 451.8091593480962 869.4716677490054 451.8091593480962L869.4716677490054 451.8091593480962Q861.3850456861286 451.8091593480962 856.2315373884308 456.74336942036007Q851.1054413689122 461.6775794926239 848.6383363327803 469.3804296609913Q846.1712312966484 477.08327982935873 846.1712312966484 485.7729720121789L846.1712312966484 485.7729720121789Q846.1712312966484 496.2170499984707 849.1317573400067 505.89358419574364Q852.092283383365 515.5701183930166 858.3148705300533 521.6830564269878Q864.5374576767415 527.7959944609593 874.5977637685239 527.7959944609593ZM989.2633233922994 490.51529613718805L934.9870125973973 490.51529613718805L934.9870125973973 476.69950793484935L989.2633233922994 476.69950793484935L989.2633233922994 490.51529613718805ZM1041.1821782637867 536.2938006965246L1041.1821782637867 536.2938006965246Q1031.8894159610231 536.2938006965246 1025.2008200852877 534.7038885621286Q1018.4848119313731 533.1413887059116 1011.5769178302037 529.57779254261L1011.5769178302037 529.57779254261L1011.5769178302037 507.48349633013976L1014.3455579263073 507.48349633013976L1020.6503819075333 518.3387584891202Q1026.7633199415045 529.1940206481006 1040.5791081438433 529.1940206481006L1040.5791081438433 529.1940206481006Q1048.6657302067201 529.1940206481006 1053.0242824372199 525.4385385375442Q1057.3554223895403 521.6830564269878 1057.3554223895403 515.1863464985072L1057.3554223895403 515.1863464985072Q1057.3554223895403 509.64906630629997 1054.5867822934367 506.38700520297004Q1051.8455544755122 503.12494409964006 1046.8016952905316 500.6578390635081Q1041.7578361055507 498.1907340273762 1034.8499420043813 495.0383220367632L1034.8499420043813 495.0383220367632Q1024.789635912599 490.51529613718805 1019.3620048331088 485.08766505769785Q1013.9343737536185 479.66003397820765 1013.9343737536185 469.79161383367995L1013.9343737536185 469.79161383367995Q1013.9343737536185 462.47253555982195 1018.0736277586844 456.55148347310535Q1022.2402940419294 450.63043138638875 1028.6547671358724 447.09424750126635Q1035.0692402298153 443.5306513379647 1041.9771343309847 443.5306513379647L1041.9771343309847 443.5306513379647Q1049.2688003266635 443.5306513379647 1055.4913874733518 445.3124494196155Q1061.71397462004 447.09424750126635 1067.8269126540113 450.24665949187937L1067.8269126540113 450.24665949187937L1067.8269126540113 471.7652978625855L1065.0582725579077 471.7652978625855L1058.5341503512477 461.2938075981145Q1052.2293263700217 451.2335015063321 1042.7446781200035 451.2335015063321L1042.7446781200035 451.2335015063321Q1036.056082244268 451.2335015063321 1031.99906507374 454.5777994441998Q1027.942047903212 457.94950966024675 1027.942047903212 463.87056174696335L1027.942047903212 463.87056174696335Q1027.942047903212 470.55915762269876 1032.7940211409382 474.01310467328346Q1037.6185821004851 477.46705172386817 1046.9113444032487 481.82560395436786L1046.9113444032487 481.82560395436786Q1052.6130982645311 484.59424405047145 1058.1503784567385 487.3354718683958Q1063.6876586489454 490.1041119644994 1067.333491646785 495.1479711494802Q1070.9793246446243 500.16441805628176 1070.9793246446243 509.4571803590453L1070.9793246446243 509.4571803590453Q1070.9793246446243 518.1468725418655 1066.2370005196153 524.1501614631197Q1061.4946763946061 530.1808626625534 1054.5867822934367 533.2236255404493Q1047.6788881922673 536.2938006965246 1041.1821782637867 536.2938006965246ZM1136.1108975985069 534.3201166676192L1093.8685769242927 534.3201166676192L1093.8685769242927 531.1677046770062L1106.313751217669 524.8354684176009L1106.313751217669 408.79929488486323L1094.471647044236 398.5196905676469L1094.471647044236 397.14907665868475L1120.924495487206 386.2938144997043L1122.1032234489135 386.2938144997043L1122.1032234489135 458.14139560750147L1122.8981795161117 458.14139560750147Q1130.381731459045 450.63043138638875 1137.3992746729314 447.09424750126635Q1144.3894056086383 443.5306513379647 1152.8872118442039 443.5306513379647L1152.8872118442039 443.5306513379647Q1164.5374300703825 443.5306513379647 1171.9387451787782 449.3420543119643Q1179.3400602871739 455.18086956414317 1179.3400602871739 466.6117895648877L1179.3400602871739 466.6117895648877L1179.3400602871739 524.8354684176009L1191.757822302371 531.1677046770062L1191.757822302371 534.3201166676192L1149.5429139063363 534.3201166676192L1149.5429139063363 531.1677046770062L1163.5505880559294 525.4385385375442L1163.5505880559294 475.90455186765126Q1163.5505880559294 467.2148596848311 1158.1229569764394 462.66442150707667Q1152.695325896949 458.14139560750147 1144.005633714129 458.14139560750147L1144.005633714129 458.14139560750147Q1138.6876517473556 458.14139560750147 1132.2731786534127 459.9231936891523Q1125.8587055594699 461.6775794926239 1122.1032234489135 465.04928970867087L1122.1032234489135 465.04928970867087L1122.1032234489135 525.4385385375442L1136.1108975985069 531.1677046770062L1136.1108975985069 534.3201166676192ZM1230.0527749187743 536.2938006965246L1230.0527749187743 536.2938006965246Q1220.7874248941898 536.2938006965246 1214.6744868602186 530.8661696170345Q1208.534136548068 525.4385385375442 1208.534136548068 515.7620043402712L1208.534136548068 515.7620043402712Q1208.534136548068 506.08547014299836 1215.7435657092092 498.9856900945743Q1222.9529948703503 491.8859100461502 1239.921195063302 487.9385419883392L1239.921195063302 487.9385419883392L1258.6711933379047 483.6074020360187L1258.6711933379047 469.1885437137366Q1258.6711933379047 462.28064961256723 1253.654746431103 457.4560886530204Q1248.610887246122 452.6041154152943 1241.7029931449529 452.6041154152943L1241.7029931449529 452.6041154152943Q1238.934353048849 452.6041154152943 1236.1657129527457 453.20718553523767Q1233.4244851348212 453.78284337700177 1228.8740469570669 455.97582563134125L1228.8740469570669 455.97582563134125L1228.8740469570669 474.12275378600043L1216.2369867164357 474.12275378600043Q1213.0845747258227 474.12275378600043 1211.7961976513982 472.6424907643213Q1210.5078205769737 471.16222774264213 1210.5078205769737 467.4067456320858L1210.5078205769737 467.4067456320858Q1210.5078205769737 461.89687771805785 1215.2501447019827 456.3595975258507Q1219.992468826992 450.82231733364347 1228.1887400025857 447.1764843358041Q1236.3850111781794 443.5306513379647 1246.6372032172167 443.5306513379647L1246.6372032172167 443.5306513379647Q1260.8367633140647 443.5306513379647 1267.6624205806966 449.3420543119643Q1274.4606655691487 455.18086956414317 1274.4606655691487 465.04928970867087L1274.4606655691487 465.04928970867087L1274.4606655691487 521.1073985852238Q1275.8586917562902 522.478012494186 1278.5176827396767 523.4648545086387Q1281.1766737230632 524.4516965230914 1285.5078136753839 524.4516965230914L1285.5078136753839 524.4516965230914L1293.0187778964967 524.4516965230914L1293.62184801644 524.8354684176009L1293.62184801644 525.4385385375442Q1291.2369798148459 529.7696784898646 1286.6043048025535 533.0317395931947Q1281.9716297902614 536.2938006965246 1275.2556216363469 536.2938006965246L1275.2556216363469 536.2938006965246Q1269.1426836023757 536.2938006965246 1265.2775523791022 533.0317395931947Q1261.439833434008 529.7696784898646 1259.8499212996119 524.4516965230914L1259.8499212996119 524.4516965230914L1258.6711933379047 524.4516965230914Q1253.545097318386 529.3859065953553 1245.9518962627355 532.8398536459399Q1238.358695207085 536.2938006965246 1230.0527749187743 536.2938006965246ZM1223.939836884803 511.81463628246024L1223.939836884803 511.81463628246024Q1223.939836884803 524.067924628582 1238.7424671015945 524.067924628582L1238.7424671015945 524.067924628582Q1243.4847912266036 524.067924628582 1248.1174662388958 523.0810826141294Q1252.7501412511879 522.0942405996766 1258.6711933379047 519.5174864508276L1258.6711933379047 519.5174864508276L1258.6711933379047 490.2959979117541Q1242.8817211066603 493.25652395511236 1235.5900551109814 496.5185850584424Q1228.2709768371235 499.7806461617723 1226.1054068609633 503.53612827232865Q1223.939836884803 507.29161038288504 1223.939836884803 511.81463628246024ZM1348.2819307058514 534.3201166676192L1306.0396100316373 534.3201166676192L1306.0396100316373 531.1677046770062L1318.4847843250138 524.8354684176009L1318.4847843250138 466.0361317231236L1306.6426801515806 455.7565274059073L1306.6426801515806 454.38591349694514L1331.121844565645 443.5306513379647L1332.3005725273526 443.5306513379647L1334.274256556258 461.6775794926239L1334.8499143980223 461.6775794926239Q1341.9771067246254 452.22034352078487 1348.1722815931346 448.16332635025685Q1354.3948687398229 444.13372145790805 1359.93214893203 444.13372145790805L1359.93214893203 444.13372145790805Q1364.0714029370959 444.13372145790805 1366.8400430331992 446.1896423213513Q1369.608683129303 448.2729754629738 1369.608683129303 452.4122294680396L1369.608683129303 452.4122294680396Q1369.608683129303 453.59095742974705 1369.0056130093596 456.962667645794L1369.0056130093596 456.962667645794L1367.8268850476522 464.2543336414728L1346.6920185714555 460.30696558366174Q1339.5922385230313 463.26749162702004 1334.274256556258 470.97034179538747L1334.274256556258 470.97034179538747L1334.274256556258 524.8354684176009L1348.2819307058514 531.1677046770062L1348.2819307058514 534.3201166676192ZM1425.2556078331672 536.2938006965246L1425.2556078331672 536.2938006965246Q1406.1218376640552 536.2938006965246 1395.0472772796409 524.6435824703462Q1384.0001291734059 512.9933642441677 1384.0001291734059 493.8595940750558L1384.0001291734059 493.8595940750558Q1384.0001291734059 479.0569638582643 1389.8389444255847 467.7082806920575Q1395.6503473995842 456.3595975258507 1405.326881596857 449.9451244319077Q1415.0034157941302 443.5306513379647 1426.0505639003652 443.5306513379647L1426.0505639003652 443.5306513379647Q1441.6481501843548 443.5306513379647 1450.6119651489676 454.38591349694514Q1459.6031923917592 465.24117565592553 1459.6031923917592 485.58108606492425L1459.6031923917592 485.58108606492425L1458.6163503773066 486.567928079377L1399.5977154573955 486.567928079377Q1399.7896014046498 495.64139215670656 1403.161311620697 503.6183651068664Q1406.5056095585646 511.6227503352055 1413.9069246669603 516.5569604074694Q1421.3082397753562 521.4911704797332 1433.7534140687326 521.4911704797332L1433.7534140687326 521.4911704797332Q1444.608676227713 521.4911704797332 1459.1920082190707 513.596434364111L1459.1920082190707 513.596434364111L1459.795078339014 513.596434364111L1459.795078339014 515.5701183930166Q1455.2446401612597 524.067924628582 1446.280825196647 530.1808626625534Q1437.289597953855 536.2938006965246 1425.2556078331672 536.2938006965246ZM1422.8981519097522 452.22034352078487L1422.8981519097522 452.22034352078487Q1413.413503659734 452.22034352078487 1407.3828024603004 458.8267025619826Q1401.3795135390462 465.43306160318025 1399.9814873519047 477.46705172386817L1399.9814873519047 477.46705172386817L1444.608676227713 477.46705172386817Q1442.4156939733737 464.06244769421806 1436.9880628938834 458.14139560750147Q1431.560431814393 452.22034352078487 1422.8981519097522 452.22034352078487ZM1583.1503301456098 534.3201166676192L1531.8345453940658 534.3201166676192L1531.8345453940658 531.1677046770062L1547.6240176253102 523.272968561384L1547.6240176253102 415.1041188660892L1531.8345453940658 407.20938275046706L1531.8345453940658 404.05697075985404L1583.1503301456098 404.05697075985404Q1606.4507665979665 404.05697075985404 1620.5406775820977 412.55477699541956Q1634.6580008444082 421.0251709528058 1634.6580008444082 439.3913973328989L1634.6580008444082 439.3913973328989Q1634.6580008444082 450.05477354462465 1627.2566857360125 458.5251675020109Q1619.8553706276166 467.02297373757636 1607.2183103869854 471.9571838098402Q1594.6086624245333 476.891393882104 1578.4080060206006 476.891393882104L1578.4080060206006 476.891393882104L1565.38717388546 476.891393882104L1565.38717388546 523.272968561384L1583.1503301456098 531.1677046770062L1583.1503301456098 534.3201166676192ZM1580.7928742221948 414.9122329188345L1580.7928742221948 414.9122329188345L1565.38717388546 414.9122329188345L1565.38717388546 466.0361317231236L1582.1634881311568 466.0361317231236Q1597.7610744151464 466.0361317231236 1606.6426525452214 459.0185885092373Q1615.5242306752964 452.0284575735302 1615.5242306752964 440.9538971891158L1615.5242306752964 440.9538971891158Q1615.5242306752964 427.1381089867771 1606.5330034325045 421.0251709528058Q1597.5691884678918 414.9122329188345 1580.7928742221948 414.9122329188345ZM1694.2797058842627 534.3201166676192L1653.5998850662654 534.3201166676192L1653.5998850662654 531.1677046770062L1666.045059359642 524.8354684176009L1666.045059359642 408.79929488486323L1654.202955186209 398.5196905676469L1654.202955186209 397.14907665868475L1680.6558036291788 386.2938144997043L1681.8345315908862 386.2938144997043L1681.8345315908862 524.8354684176009L1694.2797058842627 531.1677046770062L1694.2797058842627 534.3201166676192ZM1733.7533864623736 536.2938006965246L1733.7533864623736 536.2938006965246Q1724.46062415961 536.2938006965246 1718.3476861256383 530.8661696170345Q1712.2347480916671 525.4385385375442 1712.2347480916671 515.7620043402712L1712.2347480916671 515.7620043402712Q1712.2347480916671 506.08547014299836 1719.4441772528082 498.9856900945743Q1726.62619413577 491.8859100461502 1743.6218066069011 487.9385419883392L1743.6218066069011 487.9385419883392L1762.3718048815037 483.6074020360187L1762.3718048815037 469.1885437137366Q1762.3718048815037 462.28064961256723 1757.327945696523 457.4560886530204Q1752.284086511542 452.6041154152943 1745.3761924103726 452.6041154152943L1745.3761924103726 452.6041154152943Q1742.6349645924481 452.6041154152943 1739.8663244963448 453.20718553523767Q1737.097684400241 453.78284337700177 1732.5472462224868 455.97582563134125L1732.5472462224868 455.97582563134125L1732.5472462224868 474.12275378600043L1719.9375982600347 474.12275378600043Q1716.7577739912424 474.12275378600043 1715.4968091949975 472.6424907643213Q1714.2084321205728 471.16222774264213 1714.2084321205728 467.4067456320858L1714.2084321205728 467.4067456320858Q1714.2084321205728 461.89687771805785 1718.9507562455822 456.3595975258507Q1723.6656680924118 450.82231733364347 1731.8619392680055 447.1764843358041Q1740.0582104435996 443.5306513379647 1750.3104024826364 443.5306513379647L1750.3104024826364 443.5306513379647Q1764.5373748576637 443.5306513379647 1771.3356198461163 449.3420543119643Q1778.1612771127477 455.18086956414317 1778.1612771127477 465.04928970867087L1778.1612771127477 465.04928970867087L1778.1612771127477 521.1073985852238Q1779.53189102171 522.478012494186 1782.1908820050965 523.4648545086387Q1784.849872988483 524.4516965230914 1789.2084252189832 524.4516965230914L1789.2084252189832 524.4516965230914L1796.6919771619166 524.4516965230914L1797.29504728186 524.8354684176009L1797.29504728186 525.4385385375442Q1794.9375913584447 529.7696784898646 1790.2775040679737 533.0317395931947Q1785.6448290556812 536.2938006965246 1778.9288209017666 536.2938006965246L1778.9288209017666 536.2938006965246Q1772.8158828677954 536.2938006965246 1768.9781639227015 533.0317395931947Q1765.1130326994278 529.7696784898646 1763.5505328432112 524.4516965230914L1763.5505328432112 524.4516965230914L1762.3718048815037 524.4516965230914Q1757.2182965838058 529.3859065953553 1749.6250955281555 532.8398536459399Q1742.0318944725052 536.2938006965246 1733.7533864623736 536.2938006965246ZM1727.613036150223 511.81463628246024L1727.613036150223 511.81463628246024Q1727.613036150223 524.067924628582 1742.4156663670144 524.067924628582L1742.4156663670144 524.067924628582Q1747.1579904920234 524.067924628582 1751.790665504316 523.0810826141294Q1756.4507527947874 522.0942405996766 1762.3718048815037 519.5174864508276L1762.3718048815037 519.5174864508276L1762.3718048815037 490.2959979117541Q1746.5823326502593 493.25652395511236 1739.2632543764014 496.5185850584424Q1731.9715883807228 499.7806461617723 1729.8060184045623 503.53612827232865Q1727.613036150223 507.29161038288504 1727.613036150223 511.81463628246024ZM1851.1875861822525 534.3201166676192L1808.9452655080383 534.3201166676192L1808.9452655080383 531.1677046770062L1821.3630275232356 524.8354684176009L1821.3630275232356 466.0361317231236L1809.5209233498024 455.7565274059073L1809.5209233498024 454.38591349694514L1834.000087763867 443.5306513379647L1835.1788157255744 443.5306513379647L1836.9606138072252 458.14139560750147L1837.9474558216777 458.14139560750147Q1845.4584200427905 450.63043138638875 1852.448550978498 447.09424750126635Q1859.4660941923842 443.5306513379647 1867.9639004279495 443.5306513379647L1867.9639004279495 443.5306513379647Q1879.586706375949 443.5306513379647 1886.9880214843445 449.3420543119643Q1894.3893365927404 455.18086956414317 1894.3893365927404 466.6117895648877L1894.3893365927404 466.6117895648877L1894.3893365927404 524.8354684176009L1906.8345108861165 531.1677046770062L1906.8345108861165 534.3201166676192L1864.5921902119028 534.3201166676192L1864.5921902119028 531.1677046770062L1878.599864361496 524.8354684176009L1878.599864361496 475.90455186765126Q1878.599864361496 467.2148596848311 1873.1722332820061 462.66442150707667Q1867.7446022025158 458.14139560750147 1859.0823222978745 458.14139560750147L1859.0823222978745 458.14139560750147Q1853.7369280529222 458.14139560750147 1847.3224549589793 459.9231936891523Q1840.9079818650364 461.6775794926239 1837.15249975448 465.04928970867087L1837.15249975448 465.04928970867087L1837.15249975448 524.8354684176009L1851.1875861822525 531.1677046770062L1851.1875861822525 534.3201166676192Z " fill="#f4a896" transform="matrix(0.45887568704381476,0,0,0.45887568704381476,0,88.3234752206709)"/></g></svg>