<svg xmlns="http://www.w3.org/2000/svg" version="1.1" xmlns:xlink="http://www.w3.org/1999/xlink" xmlns:svgjs="http://svgjs.dev/svgjs" width="100%" height="100%" viewBox="0 0 1000 600"><rect width="1000" height="600" x="0" y="0" fill="#358597"/><g><rect width="333.3333333333333" height="333.3333333333333" rx="13.333333333333334" ry="13.333333333333334" y="298.3240882979162" fill="#f4a896" transform="matrix(0.4527313929891491,0,0,0.4527313929891491,0,89.4840709375704)" x="276.1018981933594"/><path d="M333.87620030491877 415.4875041567534L333.87620030491877 415.4875041567534Q328.3578062690243 415.4875041567534 324.7280604593183 411.7692279614448Q321.12782477814653 408.0509517661363 321.12782477814653 402.73912862998117L321.12782477814653 402.73912862998117Q321.12782477814653 397.2207345940867 324.7280604593183 393.59098878438067Q328.3578062690243 389.99075310320893 333.87620030491877 389.99075310320893L333.87620030491877 389.99075310320893Q339.3945943408133 389.99075310320893 342.9948300219851 393.59098878438067Q346.62457583169106 397.2207345940867 346.62457583169106 402.73912862998117L346.62457583169106 402.73912862998117Q346.62457583169106 408.0509517661363 342.9948300219851 411.7692279614448Q339.3945943408133 415.4875041567534 333.87620030491877 415.4875041567534ZM356.3924283765096 538.9283718152913L312.6289077602984 538.9283718152913L312.6289077602984 535.5347070338589L325.9969959862887 528.7178673424598L325.9969959862887 465.4186416366114L313.2486204595165 454.3523434362883L313.2486204595165 452.87683700957854L341.7258944950147 441.19082611003734L342.9948300219851 441.19082611003734L342.9948300219851 528.7178673424598L356.3924283765096 535.5347070338589L356.3924283765096 538.9283718152913ZM433.2958233366219 539.9907364425223L425.8592709460047 539.9907364425223L386.7878607667305 409.7330290925854L370.8523913582652 402.0899058022289L370.8523913582652 398.69624102079644L424.7969063187737 398.69624102079644L424.7969063187737 402.0899058022289L406.7367076558464 409.96911012085894L433.2958233366219 501.95218076194493L434.3581879638529 501.95218076194493L471.12780811745995 397.6338763935654L478.9775023075558 397.6338763935654L516.6029161886545 501.95218076194493L517.8718517156249 501.95218076194493L544.0178255969217 410.1756810205983L525.9576269339943 402.0899058022289L525.9576269339943 398.69624102079644L572.9082414318987 398.69624102079644L572.9082414318987 402.0899058022289L558.6548493498825 409.96911012085894L519.1407872425953 539.9907364425223L511.7042348519781 539.9907364425223L473.0459664721826 435.87900297388217L471.98360184495164 435.87900297388217L433.2958233366219 539.9907364425223Z " fill="#358597" transform="matrix(0.4527313929891491,0,0,0.4527313929891491,0,89.4840709375704)"/><path d="M723.9973108518097 506.31726011603786L723.9973108518097 506.31726011603786Q714.6648285447918 506.31726011603786 708.0746929749157 504.55280446345813Q701.4845574050396 502.78834881087846 694.299183783691 499.2806960075573L694.299183783691 499.2806960075573L692.7685716513326 474.1744053365134L695.2132993627383 474.1744053365134L702.7175505116616 490.3946422391438Q708.2235024877839 494.98647863621875 713.4318354381697 497.0485533145348Q718.6401683885556 499.1318864946892 723.9973108518097 499.1318864946892L723.9973108518097 499.1318864946892Q733.0321741330914 499.1318864946892 738.155473076124 494.36998208290777Q743.2787720191568 489.62933617296466 743.2787720191568 481.52984697256863L743.2787720191568 481.52984697256863Q743.2787720191568 474.7909018898244 740.3025817617934 470.96437155892863Q737.3051330025917 467.13784122803287 731.7141470191162 464.1403924688312Q726.144419537479 461.1642022114678 718.4913588756875 457.33767188057203L718.4913588756875 457.33767188057203Q711.2847267525005 453.65995106254445 706.246461816821 450.1522982592233Q701.1869383793032 446.6233869540639 698.5934011550295 441.9465165496357Q695.9786054289174 437.29090464704586 695.9786054289174 430.2543405385653L695.9786054289174 430.2543405385653Q695.9786054289174 425.0460075881794 698.5083671476763 420.0715181580149Q701.0381288664352 415.09702872785044 705.3961217432886 411.0366548767332Q709.7541146201422 406.97628102561606 715.1962910907495 404.61658732156366Q720.6172090595185 402.23563511567295 726.4420385632154 402.23563511567295L726.4420385632154 402.23563511567295Q733.627412184564 402.23563511567295 739.6010512011292 403.91505676089946Q745.5746902176943 405.5944784061259 751.6971387471274 408.6557026708425L751.6971387471274 408.6557026708425L753.2277508794857 433.14549678857543L750.7830231680801 433.14549678857543L743.7464590595996 417.0740693988132Q738.3893165963455 413.09872955504926 734.3927182507432 411.3342739024696Q730.4173784069793 409.59107675172817 725.2090454565935 409.59107675172817L725.2090454565935 409.59107675172817Q718.4913588756875 409.59107675172817 714.1121074969957 414.1829131488031Q709.7541146201422 418.77474954587797 709.7541146201422 425.4924361267839L709.7541146201422 425.4924361267839Q709.7541146201422 433.3155648032819 714.4947605300853 437.67355768013545Q719.2566649418667 442.031550556989 729.3544533150639 446.9210059798002L729.3544533150639 446.9210059798002Q738.6869356220818 451.36403286400696 744.660574638647 455.3393727077709Q750.634213655212 459.33597105337316 753.5253699052221 464.3742359890526Q756.4377846570706 469.43375942657036 756.4377846570706 477.23562960123L756.4377846570706 477.23562960123Q756.4377846570706 484.42100322257875 753.3765603923539 489.86317969318605Q750.3153361276374 495.3053561637934 745.489656210341 498.9618184799827Q740.685234794883 502.6395392980103 735.0092148040542 504.4890289579432Q729.3544533150639 506.31726011603786 723.9973108518097 506.31726011603786ZM804.9709443539319 504.7866479836796L772.2115930210964 504.7866479836796L772.2115930210964 502.34192027227397L781.8416943538508 497.43120634762437L781.8416943538508 407.44396806605886L772.658021559701 399.47202987669266L772.658021559701 398.4091047847772L793.1724758336699 389.9907380568065L794.0865914127172 389.9907380568065L794.0865914127172 445.70927137501656L794.7030879660282 445.70927137501656Q800.5279174697251 439.88444187131967 805.9488354384941 437.1420951341777Q811.3910119091014 434.37848989519745 817.9811474789775 434.37848989519745L817.9811474789775 434.37848989519745Q826.9947522584208 434.37848989519745 832.7345477547645 438.8852922849191Q838.4743432511082 443.4133531764791 838.4743432511082 452.2781484430543L838.4743432511082 452.2781484430543L838.4743432511082 497.43120634762437L848.1257030857008 502.34192027227397L848.1257030857008 504.7866479836796L815.3663517528654 504.7866479836796L815.3663517528654 502.34192027227397L826.2294461922417 497.89889338806717L826.2294461922417 459.48478056624134Q826.2294461922417 452.7458354834971 822.0202628282564 449.2169241783377Q817.8110794642711 445.70927137501656 811.0933928833651 445.70927137501656L811.0933928833651 445.70927137501656Q806.9479850248947 445.70927137501656 801.9734955947303 447.0910739945067Q796.9990061645657 448.45161811215854 794.0865914127172 451.06641383827065L794.0865914127172 451.06641383827065L794.0865914127172 497.89889338806717L804.9709443539319 502.34192027227397L804.9709443539319 504.7866479836796ZM877.8238301538197 506.31726011603786L877.8238301538197 506.31726011603786Q870.6171980306326 506.31726011603786 865.8765521206896 502.10807675205257Q861.1359062107464 497.89889338806717 861.1359062107464 490.3946422391438L861.1359062107464 490.3946422391438Q861.1359062107464 482.8903910902205 866.7268921942219 477.3844391140982Q872.3178781776975 471.8784871379759 885.4768908156112 468.8172628732593L885.4768908156112 468.8172628732593L900.0177060730151 465.45841958280636L900.0177060730151 454.27644761585543Q900.0177060730151 448.91930515260134 896.1061417347661 445.1778088290588Q892.2158358983554 441.415054003678 886.8586934351014 441.415054003678L886.8586934351014 441.415054003678Q884.7115847494321 441.415054003678 882.5644760637628 441.8827410441208Q880.4173673780934 442.3291695827253 876.9097145747724 444.0298497297901L876.9097145747724 444.0298497297901L876.9097145747724 458.1029779467512L867.1095452273115 458.1029779467512Q864.6648175159058 458.1029779467512 863.6656679295053 456.95501884748245Q862.6665183431047 455.8070597482137 862.6665183431047 452.8946449963653L862.6665183431047 452.8946449963653Q862.6665183431047 448.621686126865 866.3442391611324 444.3274687555264Q870.02195997916 440.03325138418785 876.3569935269763 437.20587063969265Q882.7132855766309 434.37848989519745 890.6852237659971 434.37848989519745L890.6852237659971 434.37848989519745Q901.6971277182416 434.37848989519745 906.9692361741425 438.8852922849191Q912.2626031318815 443.4133531764791 912.2626031318815 451.06641383827065L912.2626031318815 451.06641383827065L912.2626031318815 494.54005009761426Q913.325528223797 495.60297518952973 915.3876029021131 496.3682812557089Q917.4709360822675 497.133587321888 920.8297793727204 497.133587321888L920.8297793727204 497.133587321888L926.6546088764173 497.133587321888L927.1010374150218 497.43120634762437L927.1010374150218 497.89889338806717Q925.2728062569272 501.2577366785202 921.6801194462529 503.787498397279Q918.0661741337401 506.31726011603786 912.8790996851925 506.31726011603786L912.8790996851925 506.31726011603786Q908.1171952734112 506.31726011603786 905.1410050160478 503.787498397279Q902.1648147586844 501.2577366785202 900.9318216520625 497.133587321888L900.9318216520625 497.133587321888L900.0177060730151 497.133587321888Q896.0423662292511 500.9601176527838 890.1325027182011 503.63868888441084Q884.2438977089893 506.31726011603786 877.8238301538197 506.31726011603786ZM873.0831842438766 487.3334179744272L873.0831842438766 487.3334179744272Q873.0831842438766 496.8359682961517 884.5627752365639 496.8359682961517L884.5627752365639 496.8359682961517Q888.2192375527532 496.8359682961517 891.8331828652658 496.0706622299725Q895.4258696759402 495.3053561637934 900.0177060730151 493.3070569909923L900.0177060730151 493.3070569909923L900.0177060730151 470.64549403135396Q887.7728090141487 472.94141222989145 882.09678902332 475.47117394865035Q876.4420275343296 478.0009356674092 874.762605889103 480.9133504192576Q873.0831842438766 483.82576517110607 873.0831842438766 487.3334179744272ZM969.51174858245 504.7866479836796L936.7523972496145 504.7866479836796L936.7523972496145 502.34192027227397L946.3824985823688 497.43120634762437L946.3824985823688 451.8317199044498L937.198825788219 443.8597817150836L937.198825788219 442.79685662316814L956.1826679298297 434.37848989519745L957.0967835088769 434.37848989519745L958.6273956412352 448.45161811215854L959.0950826816782 448.45161811215854Q964.6010346578004 441.1174349779416 969.4267145750968 437.97117670587176Q974.252394492393 434.84617693564024 978.5253533618933 434.84617693564024L978.5253533618933 434.84617693564024Q981.7566456413164 434.84617693564024 983.8824958251474 436.4405645735135Q986.0296045108167 438.056210713225 986.0296045108167 441.2662444908098L986.0296045108167 441.2662444908098Q986.0296045108167 442.1803600698571 985.5831759722122 444.79515579596927L985.5831759722122 444.79515579596927L984.6478018913266 450.44991728495967L968.278755475828 447.388693020243Q962.7728034997057 449.6846112187805 958.6273956412352 455.6582502353456L958.6273956412352 455.6582502353456L958.6273956412352 497.43120634762437L969.51174858245 502.34192027227397L969.51174858245 504.7866479836796ZM1029.205621744424 506.31726011603786L1029.205621744424 506.31726011603786Q1014.3459289594454 506.31726011603786 1005.7787527186066 497.2823968347562Q997.2115764777676 488.2475335534745 997.2115764777676 473.40909927033425L997.2115764777676 473.40909927033425Q997.2115764777676 461.92950827764696 1001.7183788674894 453.1284885165867Q1006.2464397590494 444.3274687555264 1013.7294324061344 439.3529793253619Q1021.2336835550578 434.37848989519745 1029.8008597958965 434.37848989519745L1029.8008597958965 434.37848989519745Q1041.896947341895 434.37848989519745 1048.8697359448606 442.79685662316814Q1055.8212660459878 451.21522335113883 1055.8212660459878 466.9890317151647L1055.8212660459878 466.9890317151647L1055.055959979809 467.75433778134385L1009.3076640237659 467.75433778134385Q1009.456473536634 474.7909018898244 1012.0500107609079 480.97712592477257Q1014.66480648702 487.18460846155904 1020.4046019833637 491.0111387924548Q1026.1443974797073 494.83766912335057 1035.7744988124618 494.83766912335057L1035.7744988124618 494.83766912335057Q1044.1928655404322 494.83766912335057 1055.5236470202517 488.7152205939173L1055.5236470202517 488.7152205939173L1055.9913340606945 488.7152205939173L1055.9913340606945 490.24583272627564Q1052.462422755535 496.8359682961517 1045.4896341525691 501.5766142060948Q1038.5381040514421 506.31726011603786 1029.205621744424 506.31726011603786ZM1027.356132084491 441.1174349779416L1027.356132084491 441.1174349779416Q1020.0219489502741 441.1174349779416 1015.3450785458459 446.2407339209743Q1010.6682081414177 451.36403286400696 1009.6052830495023 460.696515171025L1009.6052830495023 460.696515171025L1044.1928655404322 460.696515171025Q1042.513443895206 450.3011077720915 1038.3042605312207 445.70927137501656Q1034.095077167235 441.1174349779416 1027.356132084491 441.1174349779416ZM1096.998984106794 506.31726011603786L1096.998984106794 506.31726011603786Q1089.3459234450024 506.31726011603786 1083.3085089229226 502.4907297851421Q1077.2498358990042 498.66419945424633 1073.805958601198 491.69141085128075Q1070.3620813033917 484.7398807501534 1070.3620813033917 475.08852091556076L1070.3620813033917 475.08852091556076Q1070.3620813033917 462.0783177905151 1075.4216047409095 452.9796790037185Q1080.4811281784273 443.8597817150836 1088.899494906398 439.1191358051405Q1097.3178616343685 434.37848989519745 1107.2668404946976 434.37848989519745L1107.2668404946976 434.37848989519745Q1111.5397993641977 434.37848989519745 1114.7498331417828 434.76114292828703Q1117.981125421206 435.14379596137655 1120.5746626454797 435.76029251468754L1120.5746626454797 435.76029251468754L1120.5746626454797 407.44396806605886L1110.6256837851506 399.47202987669266L1110.6256837851506 398.4091047847772L1131.9054441252988 389.9907380568065L1132.819559704346 389.9907380568065L1132.819559704346 497.89889338806717L1143.6826541437224 502.34192027227397L1143.6826541437224 504.7866479836796L1122.105274777838 504.7866479836796L1120.872281671216 496.9847778090199L1119.8093565793004 496.9847778090199Q1113.9845270756036 501.8742332318311 1108.6273846123495 504.10637592485364Q1103.2702421490953 506.31726011603786 1096.998984106794 506.31726011603786ZM1082.6069783622584 471.5808681122396L1082.6069783622584 471.5808681122396Q1082.6069783622584 484.12338419684244 1089.3459234450024 489.94821370053927Q1096.0848685277465 495.7517847023979 1105.4173508347649 495.7517847023979L1105.4173508347649 495.7517847023979Q1109.0950716527923 495.7517847023979 1113.006635991041 494.60382560312917Q1116.8969418274519 493.4558665038604 1120.5746626454797 491.159948305323L1120.5746626454797 491.159948305323L1120.5746626454797 448.30280859929036Q1116.8969418274519 445.0927748217056 1113.3042550167775 443.47712868199403Q1109.711568206103 441.8827410441208 1105.2685413218965 441.8827410441208L1105.2685413218965 441.8827410441208Q1099.1460927924632 441.8827410441208 1094.0227938494304 444.8589313014842Q1088.899494906398 447.85638006068586 1085.753236634328 454.36148162320865Q1082.6069783622584 460.8665831857315 1082.6069783622584 471.5808681122396ZM1249.1460817635775 506.31726011603786L1249.1460817635775 506.31726011603786Q1238.1341778113328 506.31726011603786 1228.86547100983 502.4056957777889Q1219.5967642083267 498.51538994137815 1212.7090096127145 491.54260133841257Q1205.821255017102 484.59107123728523 1201.9947246862062 475.0247454100458Q1198.1681943553103 465.45841958280636 1198.1681943553103 454.27644761585543L1198.1681943553103 454.27644761585543Q1198.1681943553103 442.94566613603627 1201.9947246862062 433.4643743161501Q1205.821255017102 423.9618239944256 1212.7090096127145 417.0102938932983Q1219.5967642083267 410.03750529033266 1228.86547100983 406.147199453922Q1238.1341778113328 402.23563511567295 1249.1460817635775 402.23563511567295L1249.1460817635775 402.23563511567295Q1260.157985715822 402.23563511567295 1269.5117265246781 406.147199453922Q1278.8442088316963 410.03750529033266 1285.7319634273085 417.0102938932983Q1292.619718022921 423.9618239944256 1296.4462483538168 433.4643743161501Q1300.2727786847126 442.94566613603627 1300.2727786847126 454.27644761585543L1300.2727786847126 454.27644761585543Q1300.2727786847126 465.45841958280636 1296.4462483538168 475.0247454100458Q1292.619718022921 484.59107123728523 1285.7319634273085 491.54260133841257Q1278.8442088316963 498.51538994137815 1269.5117265246781 502.4056957777889Q1260.157985715822 506.31726011603786 1249.1460817635775 506.31726011603786ZM1252.3561155411621 498.66419945424633L1252.3561155411621 498.66419945424633Q1262.156284888623 498.66419945424633 1269.575502030193 493.7747440314351Q1276.9947191717633 488.8640301067855 1281.2039025357485 479.9992348402103Q1285.4130858997341 471.11318107179676 1285.4130858997341 459.01709352579854L1285.4130858997341 459.01709352579854Q1285.4130858997341 444.0298497297901 1280.2260114511864 432.9966872757073Q1275.0176785008002 421.98478332346275 1266.21665873974 415.86233479402955Q1257.41563897868 409.7398862645963 1246.5525445393037 409.7398862645963L1246.5525445393037 409.7398862645963Q1236.7523751918427 409.7398862645963 1229.1630900355663 414.5655661818927Q1221.5950633811278 419.3699875973507 1217.3008460097894 428.2560413657642Q1213.027887140289 437.1420951341777 1213.027887140289 449.2169241783377L1213.027887140289 449.2169241783377Q1213.027887140289 464.07661696331627 1218.29999559619 475.2373304284289Q1223.5933625539292 486.4193023953799 1232.5431918278573 492.54175092481313Q1241.4930211017859 498.66419945424633 1252.3561155411621 498.66419945424633ZM1344.95814954884 504.7866479836796L1341.748115771255 504.7866479836796L1317.726008693965 443.09447564890445L1307.4581523060615 438.35382973896134L1307.4581523060615 435.9091020275557L1344.0440339697925 435.9091020275557L1344.0440339697925 438.35382973896134L1331.5015178851895 442.94566613603627L1331.5015178851895 443.8597817150836L1347.4028772602455 486.27049288251175L1348.0193738135563 486.27049288251175L1369.7668211941473 435.9091020275557L1372.9768549717323 435.9091020275557L1394.7030438504848 485.8028058420689L1395.319540403796 485.8028058420689L1410.7744712402468 444.79515579596927L1410.7744712402468 443.8597817150836L1399.7625672880026 438.35382973896134L1399.7625672880026 435.9091020275557L1429.758313381858 435.9091020275557L1429.758313381858 438.35382973896134L1418.4275319020385 443.71097220221543L1392.8748126923902 504.7866479836796L1389.6647789148055 504.7866479836796L1367.6197125084782 454.8929441691664L1344.95814954884 504.7866479836796ZM1466.344195045589 504.7866479836796L1433.5848437127534 504.7866479836796L1433.5848437127534 502.34192027227397L1443.2362035473461 497.43120634762437L1443.2362035473461 451.8317199044498L1434.0525307531962 443.8597817150836L1434.0525307531962 442.79685662316814L1453.0151143929688 434.37848989519745L1453.9504884738544 434.37848989519745L1455.3110325915063 445.70927137501656L1456.0763386576855 445.70927137501656Q1461.9011681613824 439.88444187131967 1467.3433446319896 437.1420951341777Q1472.7642626007587 434.37848989519745 1479.3543981706343 434.37848989519745L1479.3543981706343 434.37848989519745Q1488.3892614519164 434.37848989519745 1494.1290569482599 438.8852922849191Q1499.8688524446038 443.4133531764791 1499.8688524446038 452.2781484430543L1499.8688524446038 452.2781484430543L1499.8688524446038 497.43120634762437L1509.498953777358 502.34192027227397L1509.498953777358 504.7866479836796L1476.7396024445225 504.7866479836796L1476.7396024445225 502.34192027227397L1487.6239553857372 497.43120634762437L1487.6239553857372 459.48478056624134Q1487.6239553857372 452.7458354834971 1483.4147720217516 449.2169241783377Q1479.2055886577664 445.70927137501656 1472.4666435750223 445.70927137501656L1472.4666435750223 445.70927137501656Q1468.3212357165517 445.70927137501656 1463.3467462863873 447.0910739945067Q1458.3722568562225 448.45161811215854 1455.4811006062127 451.06641383827065L1455.4811006062127 451.06641383827065L1455.4811006062127 497.43120634762437L1466.344195045589 502.34192027227397L1466.344195045589 504.7866479836796ZM1554.9708892095027 506.31726011603786L1554.9708892095027 506.31726011603786Q1540.1111964245242 506.31726011603786 1531.544020183685 497.2823968347562Q1522.9768439428462 488.2475335534745 1522.9768439428462 473.40909927033425L1522.9768439428462 473.40909927033425Q1522.9768439428462 461.92950827764696 1527.4836463325682 453.1284885165867Q1532.0117072241283 444.3274687555264 1539.494699871213 439.3529793253619Q1546.9989510201362 434.37848989519745 1555.5661272609755 434.37848989519745L1555.5661272609755 434.37848989519745Q1567.6622148069737 434.37848989519745 1574.6350034099391 442.79685662316814Q1581.5865335110666 451.21522335113883 1581.5865335110666 466.9890317151647L1581.5865335110666 466.9890317151647L1580.8212274448874 467.75433778134385L1535.0729314888445 467.75433778134385Q1535.2217410017129 474.7909018898244 1537.8152782259867 480.97712592477257Q1540.4300739520986 487.18460846155904 1546.1698694484421 491.0111387924548Q1551.909664944786 494.83766912335057 1561.5397662775404 494.83766912335057L1561.5397662775404 494.83766912335057Q1569.9581330055112 494.83766912335057 1581.2889144853302 488.7152205939173L1581.2889144853302 488.7152205939173L1581.756601525773 488.7152205939173L1581.756601525773 490.24583272627564Q1578.2276902206136 496.8359682961517 1571.254901617648 501.5766142060948Q1564.3033715165207 506.31726011603786 1554.9708892095027 506.31726011603786ZM1553.1213995495696 441.1174349779416L1553.1213995495696 441.1174349779416Q1545.7872164153528 441.1174349779416 1541.1103460109248 446.2407339209743Q1536.4334756064964 451.36403286400696 1535.3705505145808 460.696515171025L1535.3705505145808 460.696515171025L1569.9581330055112 460.696515171025Q1568.278711360285 450.3011077720915 1564.0695279962993 445.70927137501656Q1559.860344632314 441.1174349779416 1553.1213995495696 441.1174349779416ZM1630.1196932079279 504.7866479836796L1597.3603418750922 504.7866479836796L1597.3603418750922 502.34192027227397L1607.011701709685 497.43120634762437L1607.011701709685 451.8317199044498L1597.828028915535 443.8597817150836L1597.828028915535 442.79685662316814L1616.7906125553077 434.37848989519745L1617.7259866361933 434.37848989519745L1619.2565987685516 448.45161811215854L1619.703027307156 448.45161811215854Q1625.2089792832785 441.1174349779416 1630.0346592005744 437.97117670587176Q1634.8603391178708 434.84617693564024 1639.1545564892094 434.84617693564024L1639.1545564892094 434.84617693564024Q1642.3645902667945 434.84617693564024 1644.5116989524636 436.4405645735135Q1646.6375491362946 438.056210713225 1646.6375491362946 441.2662444908098L1646.6375491362946 441.2662444908098Q1646.6375491362946 442.1803600698571 1646.1911205976899 444.79515579596927L1646.1911205976899 444.79515579596927L1645.2770050186427 450.44991728495967L1628.886700101306 447.388693020243Q1623.3807481251838 449.6846112187805 1619.2565987685516 455.6582502353456L1619.2565987685516 455.6582502353456L1619.2565987685516 497.43120634762437L1630.1196932079279 502.34192027227397L1630.1196932079279 504.7866479836796ZM1682.7770022614213 506.31726011603786L1682.7770022614213 506.31726011603786Q1675.570370138234 506.31726011603786 1670.3620371878483 505.0842670094159Q1665.1749627393006 503.87253240463224 1659.8178202760469 501.108927165652L1659.8178202760469 501.108927165652L1659.8178202760469 483.97457468397425L1661.943670459878 483.97457468397425L1666.8543843845273 492.39294141194495Q1671.5950302944702 500.81130813991564 1682.3093152209785 500.81130813991564L1682.3093152209785 500.81130813991564Q1688.5805732632798 500.81130813991564 1691.9606750555713 497.89889338806717Q1695.3195183460243 494.98647863621875 1695.3195183460243 489.94821370053927L1695.3195183460243 489.94821370053927Q1695.3195183460243 485.6539963292007 1693.1724096603548 483.1242346104419Q1691.0253009746857 480.594472891683 1687.134995138275 478.6812077262351Q1683.223430800026 476.7679425607872 1677.8662883367715 474.3232148493816L1677.8662883367715 474.3232148493816Q1670.064418162112 470.81556204606045 1665.8552347981267 466.6063786820751Q1661.6460514341416 462.39719531808976 1661.6460514341416 454.74413465629823L1661.6460514341416 454.74413465629823Q1661.6460514341416 449.0681146654695 1664.8560852117262 444.4762782683946Q1668.0661189893112 439.88444187131967 1673.0406084194756 437.1420951341777Q1678.01509784964 434.37848989519745 1683.372240312894 434.37848989519745L1683.372240312894 434.37848989519745Q1689.0482603037226 434.37848989519745 1693.873940221019 435.76029251468754Q1698.678361636477 437.1420951341777 1703.4402660482583 439.5868228455833L1703.4402660482583 439.5868228455833L1703.4402660482583 456.27474678865656L1701.2931573625892 456.27474678865656L1696.2336339250714 448.1539990864222Q1691.34417850226 440.35212891176246 1683.9887368662048 440.35212891176246L1683.9887368662048 440.35212891176246Q1678.780403915819 440.35212891176246 1675.6554041455875 442.94566613603627Q1672.5091458735174 445.5604618621484 1672.5091458735174 450.1522982592233L1672.5091458735174 450.1522982592233Q1672.5091458735174 455.3393727077709 1676.2719006988987 458.017943939398Q1680.013397022441 460.696515171025 1687.1987706437899 464.07661696331627L1687.1987706437899 464.07661696331627Q1691.6417975279965 466.2237256489855 1695.936014899335 468.3495758328165Q1700.2089737688352 470.49668451848584 1703.057613015169 474.4082488567348Q1705.8849937596642 478.2985546931455 1705.8849937596642 485.5051868163326L1705.8849937596642 485.5051868163326Q1705.8849937596642 492.24413189907676 1702.2072729416368 496.8997438016666Q1698.529552123609 501.5766142060948 1693.1724096603548 503.93630791014715Q1687.8152671971006 506.31726011603786 1682.7770022614213 506.31726011603786ZM1756.3951941274881 504.7866479836796L1723.635842794653 504.7866479836796L1723.635842794653 502.34192027227397L1733.2872026292453 497.43120634762437L1733.2872026292453 407.44396806605886L1724.1035298350957 399.47202987669266L1724.1035298350957 398.4091047847772L1744.5967256072263 389.9907380568065L1745.5320996881119 389.9907380568065L1745.5320996881119 445.70927137501656L1746.1273377395846 445.70927137501656Q1751.9521672432816 439.88444187131967 1757.3943437138887 437.1420951341777Q1762.8152616826578 434.37848989519745 1769.405397252534 434.37848989519745L1769.405397252534 434.37848989519745Q1778.4402605338155 434.37848989519745 1784.1800560301594 438.8852922849191Q1789.919851526503 443.4133531764791 1789.919851526503 452.2781484430543L1789.919851526503 452.2781484430543L1789.919851526503 497.43120634762437L1799.5499528592572 502.34192027227397L1799.5499528592572 504.7866479836796L1766.7906015264216 504.7866479836796L1766.7906015264216 502.34192027227397L1777.6749544676363 497.89889338806717L1777.6749544676363 459.48478056624134Q1777.6749544676363 452.7458354834971 1773.4657711036512 449.2169241783377Q1769.256587739666 445.70927137501656 1762.5176426569215 445.70927137501656L1762.5176426569215 445.70927137501656Q1758.3722347984512 445.70927137501656 1753.3977453682865 447.0910739945067Q1748.423255938122 448.45161811215854 1745.5320996881119 451.06641383827065L1745.5320996881119 451.06641383827065L1745.5320996881119 497.89889338806717L1756.3951941274881 502.34192027227397L1756.3951941274881 504.7866479836796ZM1828.9504609016399 415.86233479402955L1828.9504609016399 415.86233479402955Q1824.9538625560376 415.86233479402955 1822.3603253317638 413.18376356240253Q1819.76678810749 410.50519233077546 1819.76678810749 406.6786619998797L1819.76678810749 406.6786619998797Q1819.76678810749 402.70332215611575 1822.3603253317638 400.08852643000364Q1824.9538625560376 397.4949892057299 1828.9504609016399 397.4949892057299L1828.9504609016399 397.4949892057299Q1832.9258007454036 397.4949892057299 1835.5193379696775 400.08852643000364Q1838.1341336957894 402.70332215611575 1838.1341336957894 406.6786619998797L1838.1341336957894 406.6786619998797Q1838.1341336957894 410.50519233077546 1835.5193379696775 413.18376356240253Q1832.9258007454036 415.86233479402955 1828.9504609016399 415.86233479402955ZM1845.1706978042698 504.7866479836796L1813.6443395780566 504.7866479836796L1813.6443395780566 502.34192027227397L1823.2744409108113 497.43120634762437L1823.2744409108113 451.8317199044498L1814.090768116661 443.8597817150836L1814.090768116661 442.79685662316814L1834.6052223906304 434.37848989519745L1835.5193379696775 434.37848989519745L1835.5193379696775 497.43120634762437L1845.1706978042698 502.34192027227397L1845.1706978042698 504.7866479836796ZM1893.3849799735567 539.9907270279207L1860.6256286407215 539.9907270279207L1860.6256286407215 537.545999316515L1870.2769884753143 532.6352853918654L1870.2769884753143 451.8317199044498L1861.0933156811639 443.8597817150836L1861.0933156811639 442.79685662316814L1880.0558993209365 434.37848989519745L1880.9912734018221 434.37848989519745L1882.203008006606 443.71097220221543L1883.2871916003596 443.71097220221543Q1889.090762602218 438.8215167794042 1894.5329390728257 436.58937408638167Q1899.9538570415943 434.37848989519745 1906.0763055710277 434.37848989519745L1906.0763055710277 434.37848989519745Q1913.8994342475257 434.37848989519745 1919.8518147622526 438.35382973896134Q1925.8254537788175 442.3291695827253 1929.269331076624 449.59957721142723Q1932.71320837443 456.86998484012923 1932.71320837443 466.9890317151647L1932.71320837443 466.9890317151647Q1932.71320837443 479.5315477997675 1928.05759647184 488.3325675608278Q1923.380726067412 497.133587321888 1915.493821885399 501.725423718963Q1907.606917703386 506.31726011603786 1897.9768163706317 506.31726011603786L1897.9768163706317 506.31726011603786Q1889.409640129793 506.31726011603786 1882.5218855341805 504.7866479836796L1882.5218855341805 504.7866479836796L1882.5218855341805 532.6352853918654L1893.3849799735567 537.545999316515L1893.3849799735567 539.9907270279207ZM1897.6579388430573 444.9439653088374L1897.6579388430573 444.9439653088374Q1894.001476526868 444.9439653088374 1890.0899121886187 446.09192440810614Q1886.1783478503698 447.2398835073749 1882.5218855341805 449.5358017059123L1882.5218855341805 449.5358017059123L1882.5218855341805 492.54175092481313Q1887.1137219312554 496.2194717428407 1891.8543678411984 497.60127436233086Q1896.5950137511418 498.9618184799827 1902.4198432548387 498.9618184799827L1902.4198432548387 498.9618184799827Q1909.7540263890555 498.9618184799827 1915.1111688523092 492.7755944450345Q1920.4683113155638 486.56811190824806 1920.4683113155638 472.0272966508441L1920.4683113155638 472.0272966508441Q1920.4683113155638 462.54600483095794 1917.4070870508467 456.57236581439287Q1914.3458627861305 450.5987267978278 1909.1375298357443 447.7713460533326Q1903.9504553871966 444.9439653088374 1897.6579388430573 444.9439653088374Z " fill="#f4a896" transform="matrix(0.4527313929891491,0,0,0.4527313929891491,0,89.4840709375704)"/></g></svg>